<svg version="1.2" xmlns="http://www.w3.org/2000/svg" viewBox="0 0 169 35" width="169" height="35"><defs><clipPath clipPathUnits="userSpaceOnUse" id="cp1"><path d="m0 0h169v35h-169z"/></clipPath><clipPath clipPathUnits="userSpaceOnUse" id="cp2"><path d="m169 0h-169v35h169z"/></clipPath><linearGradient id="P" gradientUnits="userSpaceOnUse"/><linearGradient id="g1" x2="1" href="#P" gradientTransform="matrix(-169,-35,13.446,-64.925,169,35)"><stop stop-color="#182a1f"/><stop offset=".48" stop-color="#1d8041"/><stop offset=".5" stop-color="#1d8443"/><stop offset=".51" stop-color="#359257"/><stop offset="1" stop-color="#182a1f"/></linearGradient><clipPath clipPathUnits="userSpaceOnUse" id="cp3"><path d="m159 0h-149c-5.52 0-10 4.48-10 10v15c0 5.52 4.48 10 10 10h149c5.52 0 10-4.48 10-10v-15c0-5.52-4.48-10-10-10z"/></clipPath><linearGradient id="g2" x2="1" href="#P" gradientTransform="matrix(-0.698,-28.084,38.869,-0.966,94.233,19.003)"><stop stop-color="#fff" stop-opacity="1"/><stop offset="1" stop-color="#999" stop-opacity="0"/></linearGradient><linearGradient id="g3" x2="1" href="#P" gradientTransform="matrix(0,-35,177.121,0,83,242)"><stop stop-color="#22c55e" stop-opacity="1"/><stop offset="1" stop-color="#365542" stop-opacity="0"/></linearGradient></defs><style>.a{fill:url(#g1)}.b{opacity:.2;fill:#fff}.c{opacity:.3;mix-blend-mode:overlay;fill:url(#g2)}.d{fill:#fff}.e{opacity:.35;fill:#22c55e}.f{fill:none;stroke:url(#g3);stroke-width:2}.g{opacity:.5;fill:none}</style><g clip-path="url(#cp1)"><g clip-path="url(#cp2)"><path class="a" d="m159 0h-149c-5.5 0-10 4.5-10 10v15c0 5.5 4.5 10 10 10h149c5.5 0 10-4.5 10-10v-15c0-5.5-4.5-10-10-10z"/><g clip-path="url(#cp3)"><path class="b" d="m65.5 24.3c22.8 4.8 35.4 22.5 38.8 30.8-19.4-20.1-46.9-21.6-58.3-19.9 16.7-45.8 58.6-43.3 77.4-36.3-15.9 10-18.4 38.7-17.6 51.7-8-18.8-26.7-26.3-35.1-27.7 11.5-3.8 22.5 0.4 26.6 2.9 1.7-11.2 7.3-20.4 9.8-23.6-22.5-0.9-37.1 14.4-41.6 22.1z"/><path class="c" d="m-23.4-77.7c103.9-80.8 123.2-201.9 119.9-252.3-48 149.7-183.5 226.2-245.2 245.8 198.4 190.4 404 73.5 482-8.8-105.5-11.3-189.3-150-218.1-218 6.6 115.4-69.6 199.9-108.5 227.8 67.7-9.5 113-57.9 127.2-81 36.9 52.5 87.6 85.1 108.4 94.8-111.5 60.9-223.6 19.9-265.7-8.3z"/></g><path class="d" d="m28 12.8c-1.5 0-2.7 0.7-3.6 1.5-0.9 0.8-1.5 1.8-1.8 2.5q0 0.2 0 0.4c0.3 0.7 0.9 1.7 1.8 2.5 0.9 0.8 2.1 1.5 3.6 1.5 1.5 0 2.7-0.7 3.6-1.5 0.9-0.8 1.5-1.8 1.8-2.5q0-0.2 0-0.4c-0.3-0.7-0.9-1.7-1.8-2.5-0.9-0.8-2.1-1.5-3.6-1.5zm-2.7 4.2c0-1.5 1.2-2.7 2.7-2.7 1.5 0 2.7 1.2 2.7 2.7 0 1.5-1.2 2.7-2.7 2.7-1.5 0-2.7-1.2-2.7-2.7zm2.7-1.2c0 0.7-0.5 1.2-1.2 1.2q-0.3 0-0.6-0.2 0 0.4 0.1 0.7c0.2 0.9 1.2 1.5 2.2 1.2 0.9-0.2 1.5-1.2 1.2-2.2-0.2-0.8-1-1.4-1.9-1.3q0.2 0.3 0.2 0.6z"/><path class="e" d="m160.3 102.3h-1.2l-0.2 0.7h-0.7l1.2-3.4h0.7l1.2 3.4h-0.8zm-1-0.6h0.9l-0.2-0.4-0.2-0.9h-0.1l-0.2 0.9zm4.1-2.2q0.2 0 0.4 0.1 0.2 0.1 0.3 0.3 0.1 0.1 0.2 0.3 0.1 0.2 0.1 0.4 0 0.1-0.1 0.3 0 0.1-0.1 0.2-0.1 0.2-0.2 0.3-0.1 0.1-0.2 0.1l0.6 1.5h-0.7q0-0.1-0.1-0.2 0-0.1-0.1-0.2 0-0.2-0.1-0.3-0.1-0.1-0.1-0.3-0.1-0.1-0.1-0.2 0-0.1-0.1-0.1h-0.6v1.3h-0.7v-3.5zm-0.8 1.5h0.7q0.2 0 0.3-0.1 0.2-0.1 0.2-0.3 0-0.2-0.2-0.3-0.1-0.2-0.3-0.2h-0.7zm3.3-1.5v3.4h-0.7v-3.4zm0.8 2.9l1.6-2.3h-1.5v-0.6h2.3v0.6l-1.6 2.2h1.6v0.6h-2.4zm5.7-0.5q0 0.3-0.1 0.5-0.1 0.2-0.3 0.4-0.1 0.1-0.4 0.2-0.2 0.1-0.5 0.1-0.3 0-0.5-0.1-0.2-0.1-0.4-0.2-0.2-0.2-0.3-0.4-0.1-0.2-0.1-0.5v-1.2q0-0.3 0.1-0.5 0.1-0.2 0.3-0.4 0.2-0.1 0.4-0.2 0.3-0.1 0.5 0 0.3 0 0.5 0 0.2 0.1 0.4 0.2 0.2 0.2 0.3 0.4 0.1 0.2 0.1 0.5zm-0.7-1.1q0-0.2 0-0.3-0.1-0.1-0.2-0.2 0-0.1-0.2-0.1-0.1-0.1-0.2-0.1-0.1 0-0.2 0.1-0.1 0-0.2 0.1-0.1 0.1-0.2 0.2 0 0.1 0 0.3v1q0 0.1 0 0.3 0.1 0.1 0.2 0.2 0.1 0 0.2 0.1 0.1 0 0.2 0 0.1 0 0.2 0 0.2-0.1 0.2-0.1 0.1-0.1 0.2-0.2 0-0.2 0-0.3zm2.2 0v2.2h-0.6v-3.5h0.6l0.8 1.2 0.6 1v-2.2h0.7v3.5h-0.6l-0.9-1.3-0.5-0.9zm4.8 1.5h-1.2l-0.2 0.7h-0.8l1.3-3.5h0.7l1.2 3.5h-0.8zm-1-0.6h0.8l-0.1-0.4-0.3-0.9-0.3 0.9zm6.6 0.3q0 0.2-0.1 0.4-0.1 0.2-0.2 0.3-0.2 0.1-0.5 0.2-0.2 0.1-0.5 0.1-0.4 0-0.7-0.1-0.3-0.1-0.6-0.4l0.4-0.5q0.2 0.2 0.4 0.3 0.3 0.1 0.5 0.1 0.2 0 0.3-0.1 0.1 0 0.2-0.1 0 0 0.1-0.1 0-0.1 0-0.1 0-0.2-0.1-0.2 0-0.1-0.1-0.2-0.1 0-0.3-0.1-0.1 0-0.3 0-0.2-0.1-0.4-0.2-0.2 0-0.3-0.2-0.1-0.1-0.2-0.2-0.1-0.2-0.1-0.4 0-0.2 0.1-0.4 0.1-0.2 0.2-0.4 0.2-0.1 0.4-0.2 0.2-0.1 0.5-0.1 0.3 0 0.6 0.1 0.3 0.1 0.6 0.3l-0.3 0.5q-0.2-0.1-0.4-0.2-0.3 0-0.5 0-0.1 0-0.2 0-0.1 0-0.1 0.1-0.1 0-0.2 0.1 0 0.1 0 0.2 0 0.1 0 0.1 0.1 0.1 0.2 0.2 0.1 0 0.2 0.1 0.2 0 0.4 0 0.5 0.2 0.8 0.4 0.2 0.2 0.2 0.7zm2.7-1.3l-0.2 1-0.4 1.2h-0.7l-0.9-3.4h0.7l0.3 1.4 0.3 1 0.3-1 0.3-1.4h0.6l0.4 1.4 0.3 1 0.2-1 0.3-1.4h0.7l-0.8 3.4h-0.8l-0.3-1.3zm4.6 1.5h-1.2l-0.2 0.7h-0.7l1.2-3.4h0.7l1.2 3.4h-0.8zm-1-0.5h0.8l-0.1-0.5-0.3-0.9-0.2 0.9zm5 0.8q-0.1 0.2-0.3 0.3-0.1 0.1-0.3 0.1-0.1 0.1-0.3 0.1-0.1 0-0.3 0-0.2 0-0.4 0-0.3-0.1-0.5-0.2-0.2-0.2-0.3-0.4-0.1-0.2-0.1-0.5v-1.2q0-0.3 0.1-0.5 0.1-0.2 0.3-0.4 0.2-0.1 0.5-0.2 0.2-0.1 0.4-0.1 0.3 0 0.6 0.1 0.3 0.1 0.5 0.3l-0.3 0.5q-0.2-0.1-0.4-0.2-0.2-0.1-0.3 0-0.2 0-0.3 0-0.1 0-0.2 0.1-0.1 0.1-0.1 0.2-0.1 0.1-0.1 0.3v1q0 0.1 0.1 0.3 0 0.1 0.1 0.2 0.1 0 0.2 0.1 0.1 0 0.2 0 0.1 0 0.3 0 0.1-0.1 0.2-0.1v-0.6h-0.5v-0.6h1.2z"/><path class="d" d="m286.6-43.2q-0.3-0.3-0.7-0.4-0.3-0.1-0.7-0.1-0.2 0-0.4 0.1-0.3 0-0.4 0.2-0.2 0.1-0.3 0.4-0.1 0.2-0.2 0.6v2q0.1 0.3 0.2 0.5 0.1 0.3 0.3 0.4 0.1 0.2 0.4 0.2 0.2 0.1 0.4 0.1 0.4 0 0.7-0.1 0.4-0.1 0.7-0.4l0.7 1.1q-0.4 0.3-0.9 0.5-0.6 0.2-1.2 0.2-0.5 0-1-0.2-0.4-0.1-0.8-0.4-0.4-0.3-0.6-0.7-0.2-0.4-0.2-0.9v-2.6q0-0.6 0.2-1 0.2-0.4 0.6-0.7 0.4-0.3 0.8-0.4 0.5-0.1 1-0.2 0.6 0 1.1 0.2 0.6 0.2 1 0.5zm4.1-0.4v1.8q0 0.9-0.1 1.6-0.1 0.7-0.4 1.2-0.2 0.5-0.7 0.8-0.4 0.3-1.2 0.4l-0.3-1.1q0.5-0.1 0.7-0.4 0.3-0.2 0.4-0.5 0.2-0.4 0.2-0.8 0.1-0.5 0.1-1.1v-3.1h4.5v6.8h-1.4v-5.6zm4.9-1.3l4.8 0.1v1.2h-3.4v1.6h2.9v1.2h-2.9v1.6h3.4v1.2h-4.8zm6.3 5.7q0.3-0.2 0.4-0.4 0.2-0.2 0.3-0.6 0.1-0.3 0.1-0.8 0.1-0.4 0.1-1l0.2-2.9h4.6q0 1.5 0 2.9 0 1.4 0 2.8h0.6v2.8h-1.2v-1.6h-4.3v1.6h-1.3v-2.8zm2.3-4.4l-0.1 1.6q0 0.4 0 0.8-0.1 0.4-0.1 0.8-0.1 0.3-0.2 0.7-0.1 0.3-0.3 0.5h2.8v-4.4zm10.6-1.3v6.9h-1.4v-2.7h-0.8q-0.2 0-0.4 0-0.2 0.1-0.3 0.2-0.2 0.1-0.3 0.3-0.1 0.1-0.2 0.4l-0.5 1.8h-1.5l0.6-1.9q0.1-0.3 0.3-0.6 0.1-0.3 0.4-0.5-0.3-0.1-0.5-0.3-0.2-0.2-0.3-0.4-0.2-0.2-0.2-0.5-0.1-0.3-0.1-0.6 0-0.4 0.1-0.7 0.2-0.4 0.4-0.7 0.3-0.3 0.7-0.5 0.4-0.2 0.9-0.2zm-1.4 1.3h-1.3q-0.6 0-0.8 0.2-0.2 0.3-0.2 0.7 0 0.4 0.2 0.6 0.3 0.2 0.7 0.2h1.4zm7.7 4.4h2v-5.6h1.4v5.7h0.6v2.7h-1.3v-1.5h-7.3v-6.9h1.3v5.6h2v-5.6h1.3zm9.4-3.3l-0.7 1.1q-0.1 0.1-0.3 0.4-0.2 0.3-0.4 0.6-0.2 0.3-0.4 0.7-0.2 0.3-0.4 0.6-0.2 0.4-0.4 0.6-0.2 0.3-0.3 0.5h-1.3v-6.9h1.4v4.5l1.5-2.2 1.5-2.3h1.2v6.9h-1.4zm7.3 0l-0.7 1.1q-0.1 0.1-0.3 0.4-0.2 0.3-0.4 0.6-0.2 0.3-0.4 0.7-0.2 0.3-0.4 0.6-0.2 0.4-0.4 0.6-0.2 0.3-0.3 0.5h-1.3v-6.9h1.4v4.5l1.5-2.2 1.4-2.3h1.3v6.9h-1.4zm-1.2-2.6q-0.5 0-0.8-0.2-0.2-0.1-0.4-0.4-0.2-0.2-0.3-0.5 0-0.2-0.1-0.5h1q0 0.2 0 0.3 0 0.1 0.1 0.2 0.1 0.1 0.2 0.1 0.1 0.1 0.3 0.1 0.1 0 0.2-0.1 0.1 0 0.2-0.1 0.1-0.1 0.1-0.2 0.1-0.1 0.1-0.3h0.9q0 0.3-0.1 0.5-0.1 0.3-0.3 0.5-0.2 0.3-0.4 0.4-0.3 0.2-0.7 0.2zm9.4 0.1q0.5 0 0.9 0.1 0.4 0.2 0.8 0.4 0.3 0.2 0.5 0.6 0.2 0.3 0.2 0.8 0 0.5-0.3 0.9-0.2 0.4-0.7 0.6 0.5 0.2 0.8 0.6 0.3 0.4 0.3 0.9 0 0.6-0.3 1-0.2 0.4-0.5 0.7-0.4 0.2-0.9 0.3-0.4 0.2-0.9 0.2-0.4 0-0.7-0.1-0.4 0-0.7-0.1-0.3-0.1-0.6-0.2-0.2-0.2-0.4-0.3l0.7-1q0.1 0.1 0.3 0.2 0.2 0.1 0.5 0.1 0.2 0.1 0.4 0.1 0.2 0.1 0.4 0.1 0.6 0 0.9-0.3 0.4-0.3 0.4-0.7 0-0.5-0.3-0.7-0.3-0.2-0.8-0.2h-1v-1.1h0.9q0.2 0 0.4-0.1 0.2 0 0.4-0.1 0.1-0.1 0.2-0.3 0.1-0.2 0.1-0.4 0-0.2-0.1-0.4-0.1-0.1-0.3-0.2-0.1-0.1-0.3-0.1-0.2-0.1-0.4-0.1-0.4 0-0.8 0.2-0.4 0.1-0.7 0.3l-0.7-1q0.5-0.3 1-0.5 0.6-0.2 1.3-0.2zm7.8 5.6h-2.4l-0.5 1.4h-1.4l2.4-6.9h1.4l2.4 6.9h-1.5zm-2-1.2h1.6l-0.3-0.8-0.5-1.9-0.6 1.8zm8.3 2.6v-6.9h4.7v1.2h-3.4v5.7zm5.8-6.9h4.8v1.2h-3.4v1.6h2.9v1.3h-2.9v1.6h3.4v1.2h-4.8zm9 1.2v5.7h-1.4v-5.7h-1.8v-1.2h5v1.2zm5.8 0v5.7h-1.4v-5.7h-1.8v-1.2h5v1.2zm8 3.5q0 0.6-0.2 1-0.2 0.4-0.6 0.7-0.3 0.3-0.8 0.4-0.5 0.2-1.1 0.2-0.5 0-1-0.2-0.5-0.1-0.8-0.4-0.4-0.3-0.6-0.7-0.2-0.4-0.2-1v-2.5q0-0.6 0.2-1 0.2-0.4 0.6-0.7 0.4-0.3 0.9-0.4 0.4-0.2 0.9-0.2 0.6 0 1 0.2 0.5 0.1 0.9 0.4 0.4 0.3 0.6 0.7 0.2 0.5 0.2 1zm-1.4-2.2q0-0.4-0.1-0.6-0.1-0.3-0.3-0.4-0.2-0.1-0.4-0.2-0.2-0.1-0.5-0.1-0.2 0-0.4 0.1-0.3 0.1-0.4 0.2-0.2 0.1-0.3 0.4-0.1 0.2-0.1 0.6v2q0 0.3 0.1 0.5 0.1 0.3 0.3 0.4 0.1 0.2 0.4 0.3 0.2 0 0.4 0 0.3 0 0.5 0 0.2-0.1 0.4-0.3 0.2-0.1 0.3-0.4 0.1-0.2 0.1-0.5z"/><path class="d" d="m46.9 14.2h-4.8l-1.1 6.8h1.8l0.9-5.3h2.9zm-1.1 6.8h0.5c1.7 0 2.5-0.9 3-3.2l0.5-2.2h1.4l-0.9 5.4h1.8l1.1-6.8h-4.9l-0.6 2.9c-0.3 1.8-0.7 2.3-1.4 2.4l-0.2 0.1zm9 0l0.6-1.3h2.2l0.2 1.3h2l-1.2-6.8h-2.5l-3.3 6.8zm1.2-2.7l1.1-2.2 0.3 2.2zm5 2.7h3.2c1.5 0 2.5-0.8 2.7-1.9 0.2-1-0.4-1.6-1.3-1.7 0.8-0.2 1.4-0.8 1.6-1.5 0.1-1-0.6-1.7-2.1-1.7h-3zm2.1-1.5l0.3-1.4h0.8c0.6 0 0.9 0.3 0.8 0.7 0 0.5-0.4 0.7-1 0.7zm0.4-2.5l0.2-1.3h0.8c0.5 0 0.8 0.2 0.7 0.6-0.1 0.4-0.5 0.7-0.9 0.7zm3.5 4h1.8l0.4-2.6h2.5l-0.5 2.6h1.9l1.1-6.8h-1.9l-0.4 2.7h-2.4l0.4-2.7h-1.8zm9.6-4.5l0.4-2.2h-1.9l-1.1 6.7h2.5c1.7 0 3-0.9 3.3-2.2 0.2-1.4-0.8-2.3-2.5-2.3zm6.2-2.2h-1.8l-1.2 6.7h1.9zm-6.5 3.7h0.7c0.7 0 1 0.4 0.9 0.8-0.1 0.5-0.5 0.9-1.2 0.9h-0.6zm7.7-3.7l-1.1 6.8h1.5l3-3.6h0.1l-0.6 3.6h1.8l1.1-6.8h-1.5l-3 3.5h-0.1l0.6-3.5zm3.9-1.8c-0.1 0.3-0.3 0.5-0.8 0.5-0.4 0-0.6-0.3-0.5-0.5h-1.2c-0.1 0.8 0.5 1.4 1.6 1.4 1.1 0 1.9-0.6 2-1.4zm10.1 4.3c0.1-1.7-1-2.6-2.8-2.6-1.7 0-3.3 1.1-3.7 3.4-0.4 2.3 0.9 3.5 2.8 3.5 1.9 0 3.1-1.3 3.4-2.5h-1.9c-0.2 0.6-0.7 0.9-1.4 0.9-0.8 0-1.2-0.5-1-1.7 0.2-1.3 0.9-2 1.8-2 0.7 0 1 0.4 0.9 1zm-0.2 4.3h0.4c1.8 0 2.6-0.9 3.1-3.3l0.4-2.1h1.5l-0.9 5.4h1.7l1.2-6.8h-4.9l-0.6 2.8c-0.4 1.8-0.8 2.4-1.5 2.5h-0.2zm7.3 0h4.8l0.3-1.4h-3.1l0.2-1.2h2.8l0.3-1.5h-2.8l0.2-1.1h3l0.3-1.5h-4.9zm5.5 1.6h1.8l0.2-1.6h3.6l-0.2 1.6h1.8l0.5-3h-0.8l0.9-5.4h-4.8l-0.7 2.9c-0.4 1.6-0.8 2.2-1.3 2.5h-0.5zm3.1-3.1c0.3-0.5 0.7-1.2 1-2.5l0.3-1.3h1.4l-0.6 3.8zm10 1.4l1.1-6.7h-2.9c-1.5 0-2.7 0.8-2.9 2.3-0.2 0.9 0.1 1.6 0.8 1.9l-1.8 2.5h2l1.6-2.2h0.6l-0.4 2.2zm-1.2-3.6h-0.7c-0.6 0-0.9-0.2-0.9-0.8 0.1-0.6 0.6-0.9 1.2-0.9h0.7zm12.7 2.3h-0.8l0.9-5.4h-1.8l-0.9 5.4h-1.6l0.9-5.4h-1.8l-0.9 5.4h-1.6l0.9-5.4h-1.8l-1.1 6.8h7.6l-0.2 1.6h1.6zm1.1-5.4l-1.2 6.7h1.6l3-3.5-0.5 3.5h1.8l1.1-6.7h-1.5l-3 3.5h-0.1l0.6-3.5zm7 0l-1.1 6.7h1.5l3-3.5h0.1l-0.6 3.5h1.8l1.1-6.7h-1.5l-3 3.5h-0.1l0.6-3.5zm3.9-1.8c-0.1 0.2-0.3 0.5-0.8 0.5-0.4 0-0.6-0.3-0.5-0.5h-1.2c-0.1 0.8 0.5 1.4 1.6 1.4 1.1 0 1.9-0.6 2-1.4z"/><path class="f" d="m158 208h-149c-5 0-9 4-9 9v15c0 5 4 9 9 9h149c5 0 9-4 9-9v-15c0-5-4-9-9-9z"/></g><path class="g" d="m12.4 32.1c0.6 0 1.2-0.2 1.5-0.8h0.1l-0.1 0.7h1.6l0.6-3.4c0.1-0.9-0.6-1.6-2-1.6-1.5 0-2.3 0.8-2.6 1.7h1.7c0.1-0.3 0.3-0.5 0.7-0.5 0.3 0 0.4 0.2 0.4 0.4v0.1c0 0.2-0.4 0.3-1.2 0.4-1 0.1-1.9 0.5-2.1 1.5-0.1 1 0.5 1.5 1.4 1.5zm0.8-1.1c-0.3 0-0.5-0.2-0.5-0.5 0.1-0.2 0.3-0.4 0.7-0.5 0.3 0 0.5-0.1 0.7-0.1v0.4c-0.1 0.4-0.5 0.7-0.9 0.7zm2.8 1h1.8l0.4-2.6c0.1-0.5 0.6-0.9 1.1-0.9 0.2 0 0.5 0 0.6 0.1l0.3-1.5c-0.2 0-0.3-0.1-0.5-0.1-0.5 0-0.9 0.3-1.2 1h-0.1l0.2-0.9h-1.7zm4 0h1.7l0.8-4.9h-1.7zm1.8-5.4c0.4 0 0.9-0.4 0.9-0.8 0.1-0.5-0.2-0.8-0.7-0.8-0.5 0-0.9 0.3-1 0.8-0.1 0.4 0.3 0.8 0.8 0.8zm1.2 5.4h4.4l0.2-1.4h-2.1 0.1l2.3-2.5 0.2-1h-4.2l-0.2 1.3h2.1l-2.6 2.6zm7.3 0.1c1.6 0 2.7-1 2.9-2.5 0.3-1.5-0.5-2.6-2.1-2.6-1.6 0-2.7 1.1-2.9 2.6-0.3 1.5 0.5 2.5 2.1 2.5zm0.2-1.3c-0.5 0-0.7-0.5-0.5-1.2 0.1-0.8 0.4-1.3 0.9-1.3 0.5 0 0.7 0.5 0.5 1.3-0.1 0.7-0.4 1.2-0.9 1.2zm5.7-1.6c0-0.4 0.4-0.7 0.8-0.7 0.5 0 0.7 0.3 0.6 0.7l-0.5 2.8h1.8l0.5-3.1c0.2-1.1-0.4-1.9-1.4-1.9-0.7 0-1.4 0.4-1.7 1l0.1-0.9h-1.6l-0.9 4.9h1.8zm5.1 2.8c0.7 0 1.2-0.2 1.6-0.7l-0.1 0.7h1.6l0.6-3.4c0.2-0.9-0.6-1.6-2-1.6-1.5 0-2.3 0.8-2.5 1.7h1.6c0.1-0.3 0.3-0.5 0.7-0.5 0.3 0 0.5 0.2 0.4 0.4 0 0.3-0.3 0.4-1.2 0.5-1 0-1.9 0.4-2 1.5-0.2 1 0.4 1.4 1.3 1.4zm0.8-1.1c-0.3 0-0.5-0.1-0.5-0.4 0.1-0.2 0.3-0.4 0.7-0.5 0.3 0 0.6-0.1 0.7-0.2v0.4c-0.1 0.5-0.5 0.7-0.9 0.7zm4.6 2.9h1.7l0.5-2.6c0.1 0.5 0.5 0.8 1.2 0.8 1.1 0 2.1-0.8 2.4-2.5 0.3-1.8-0.5-2.5-1.5-2.5-0.7 0-1.3 0.4-1.5 0.9h-0.1l0.2-0.8h-1.8zm2.5-4.3c0.1-0.8 0.4-1.2 0.9-1.2 0.5 0 0.7 0.4 0.6 1.2-0.1 0.7-0.5 1.1-1 1.1-0.4 0-0.7-0.4-0.5-1.1zm4.2 2.5c0.6 0 1.1-0.2 1.5-0.8l-0.1 0.7h1.7l0.5-3.3c0.2-0.9-0.6-1.7-2-1.7-1.4 0-2.3 0.8-2.5 1.7h1.6c0.1-0.3 0.4-0.4 0.7-0.4 0.3 0 0.5 0.1 0.5 0.4-0.1 0.3-0.4 0.3-1.2 0.4-1.1 0.1-1.9 0.5-2.1 1.6-0.2 0.9 0.4 1.4 1.4 1.4zm0.7-1.1c-0.3 0-0.5-0.2-0.4-0.4 0-0.3 0.2-0.5 0.7-0.5 0.2-0.1 0.5-0.1 0.7-0.2l-0.1 0.4c-0.1 0.4-0.5 0.7-0.9 0.7zm3.9 1h1.8l0.4-2.5c0.1-0.6 0.5-1 1-1 0.2 0 0.5 0.1 0.7 0.1l0.2-1.5c-0.1 0-0.2-0.1-0.4-0.1-0.5 0-1 0.4-1.3 1l0.1-0.9h-1.7zm4 0h1.8l0.2-1.4 0.3-0.3 0.7 1.7h2.1l-1.3-2.7 2-2.2h-1.9l-1.5 1.7h-0.1l0.6-3.3h-1.8zm7.3 0.1c1.4 0 2.4-0.7 2.7-1.7h-1.6c-0.1 0.3-0.5 0.4-0.8 0.4-0.5 0-0.8-0.3-0.7-0.8v-0.1h3.2l0.1-0.4c0.2-1.5-0.6-2.5-2.1-2.5-1.5 0-2.6 1-2.9 2.5-0.2 1.6 0.6 2.6 2.1 2.6zm-0.2-3.2c0.1-0.4 0.5-0.7 0.9-0.7 0.4 0 0.7 0.3 0.6 0.7zm2.9 3.1h1.8l0.4-2.6c0.1-0.6 0.6-0.9 1.1-0.9 0.2 0 0.5 0 0.6 0.1l0.3-1.5c-0.2-0.1-0.3-0.1-0.4-0.1-0.6 0-1 0.3-1.3 1h-0.1l0.2-0.9h-1.7z"/></g></svg>