<svg version="1.2" xmlns="http://www.w3.org/2000/svg" viewBox="0 0 169 35" width="169" height="35"><defs><clipPath clipPathUnits="userSpaceOnUse" id="cp1"><path d="m0 0h169v35h-169z"/></clipPath><clipPath clipPathUnits="userSpaceOnUse" id="cp2"><path d="m169 0h-169v35h169z"/></clipPath><linearGradient id="P" gradientUnits="userSpaceOnUse"/><linearGradient id="g1" x2="1" href="#P" gradientTransform="matrix(-169,-35,13.447,-64.928,168,35)"><stop stop-color="#323d45"/><stop offset=".5" stop-color="#1fceff"/><stop offset="1" stop-color="#323d45"/></linearGradient><clipPath clipPathUnits="userSpaceOnUse" id="cp3"><path d="m159 0h-149c-5.52 0-10 4.48-10 10v15c0 5.52 4.48 10 10 10h149c5.52 0 10-4.48 10-10v-15c0-5.52-4.48-10-10-10z"/></clipPath><linearGradient id="g2" x2="1" href="#P" gradientTransform="matrix(-0.698,-28.084,38.869,-0.966,94.233,19.003)"><stop stop-color="#fff" stop-opacity="1"/><stop offset="1" stop-color="#999" stop-opacity="0"/></linearGradient><linearGradient id="g3" x2="1" href="#P" gradientTransform="matrix(0,-35,177.121,0,84,35)"><stop stop-color="#a8ecff" stop-opacity="1"/><stop offset="1" stop-color="#a8ecff" stop-opacity="0"/></linearGradient></defs><style>.a{fill:url(#g1)}.b{opacity:.2;fill:#fff}.c{opacity:.3;mix-blend-mode:overlay;fill:url(#g2)}.d{fill:#fff}.e{fill:none;stroke:url(#g3);stroke-width:2}</style><g clip-path="url(#cp1)"><g clip-path="url(#cp2)"><path class="a" d="m158 0h-149c-5.5 0-10 4.5-10 10v15c0 5.5 4.5 10 10 10h149c5.5 0 10-4.5 10-10v-15c0-5.5-4.5-10-10-10z"/><g clip-path="url(#cp3)"><path class="b" d="m65.5 24.3c22.8 4.8 35.4 22.5 38.8 30.8-19.4-20.1-46.9-21.6-58.3-19.9 16.7-45.8 58.6-43.3 77.4-36.3-15.9 10-18.4 38.7-17.6 51.7-8-18.8-26.7-26.3-35.1-27.7 11.5-3.8 22.5 0.4 26.6 2.9 1.7-11.2 7.3-20.4 9.8-23.6-22.5-0.9-37.1 14.4-41.6 22.1z"/><path class="c" d="m-23.4-77.7c103.9-80.8 123.2-201.9 119.9-252.3-48 149.7-183.5 226.2-245.2 245.8 198.4 190.4 404 73.5 482-8.8-105.5-11.3-189.3-150-218.1-218 6.6 115.4-69.6 199.9-108.5 227.8 67.7-9.5 113-57.9 127.2-81 36.9 52.5 87.6 85.1 108.4 94.8-111.5 60.9-223.6 19.9-265.7-8.3z"/></g><path class="d" d="m58.5 22q0.4 0 0.7-0.3 0.3-0.3 0.3-0.7v-3q0-0.4-0.3-0.7-0.3-0.3-0.7-0.3v-0.5c0-0.9 0.4-1.8 1-2.5 0.7-0.6 1.6-1 2.5-1 0.9 0 1.8 0.4 2.5 1 0.6 0.7 1 1.6 1 2.5v0.5q-0.4 0-0.7 0.3-0.3 0.3-0.3 0.7v3h-1.5q-0.2 0-0.4 0.1-0.1 0.2-0.1 0.4 0 0.2 0.1 0.4 0.2 0.1 0.4 0.1h2.5c0.6 0 1.1-0.2 1.6-0.6 0.4-0.3 0.7-0.8 0.8-1.4 0.2-0.5 0.1-1.1-0.2-1.6-0.2-0.6-0.7-1-1.2-1.2v-0.7c0-1.2-0.5-2.3-1.3-3.2-0.9-0.8-2-1.3-3.2-1.3-1.2 0-2.3 0.5-3.2 1.3-0.8 0.9-1.3 2-1.3 3.2v0.7c-0.5 0.2-1 0.6-1.2 1.2-0.3 0.5-0.4 1.1-0.2 1.6 0.1 0.6 0.4 1.1 0.8 1.4 0.5 0.4 1 0.6 1.6 0.6z"/><path class="d" d="m74.4 18.7l-1.6 2.7h-1.7l2.4-4-2.3-3.8h1.8l1.4 2.5 1.3-2.5h1.8l-2.3 3.8 2.4 4h-1.7zm4.6-5.1h5.3v1.4h-3.8v1.7h3.3v1.4h-3.3v1.9h3.8v1.3h-5.3zm9.4 1.4v2.1q0 0.9-0.2 1.7-0.1 0.8-0.4 1.4-0.3 0.6-0.8 0.9-0.5 0.4-1.3 0.5l-0.4-1.3q0.5-0.1 0.8-0.4 0.3-0.2 0.5-0.6 0.1-0.4 0.2-0.9 0-0.6 0-1.3v-3.5h5.2v7.8h-1.6v-6.4zm9.9 6.4v-6.4h-2.8v6.4h-1.6v-7.8h6v7.8zm3.5-7.8h5.3v1.4h-3.8v1.8h3.3v1.4h-3.3v1.8h3.8v1.4h-5.3zm10.5 0q0.6 0 1 0.2 0.4 0.2 0.7 0.6 0.3 0.3 0.4 0.8 0.1 0.4 0.1 0.8 0 0.4-0.1 0.9-0.2 0.4-0.5 0.7-0.3 0.4-0.7 0.6-0.4 0.2-0.9 0.2h-1.9v2.9h-1.6v-7.7zm-1.9 3.4h1.6q0.5 0 0.8-0.3 0.3-0.3 0.3-0.7 0-0.4-0.3-0.7-0.3-0.3-0.8-0.3h-1.6z"/><path class="e" d="m159 1h-149c-5 0-9 4-9 9v15c0 5 4 9 9 9h149c5 0 9-4 9-9v-15c0-5-4-9-9-9z"/></g></g></svg>