<svg width="169" height="35" viewBox="0 0 169 35" fill="none" xmlns="http://www.w3.org/2000/svg">
<g clip-path="url(#clip0_7689_267)">
<rect width="169" height="35" rx="10" fill="url(#paint0_linear_7689_267)"/>
<mask id="mask0_7689_267" style="mask-type:alpha" maskUnits="userSpaceOnUse" x="0" y="0" width="169" height="35">
<rect width="169" height="35" rx="10" fill="#2A2A2A"/>
</mask>
<g mask="url(#mask0_7689_267)">
<path d="M65.4556 24.3408C88.3162 29.0855 100.856 46.8445 104.268 55.131C84.9197 35.0482 57.375 33.4645 46.0213 35.183C62.7178 -10.6466 104.582 -8.10639 123.427 -1.10758C107.52 8.94442 105.026 37.5788 105.767 50.6396C97.7858 31.7683 79.0533 24.2567 70.6847 22.8598C82.1967 19.09 93.1948 23.2579 97.2548 25.8132C99.0322 14.5801 104.561 5.42375 107.103 2.24979C84.5974 1.26732 69.9608 16.5678 65.4556 24.3408Z" fill="white" fill-opacity="0.2"/>
<path d="M-23.4211 -77.6775C80.4929 -158.518 99.8185 -279.576 96.4919 -330C48.4798 -180.255 -86.9996 -103.77 -148.738 -84.2459C49.692 106.215 255.27 -10.7057 333.256 -92.9738C227.758 -104.311 143.954 -243.042 115.239 -310.991C121.754 -195.636 45.6125 -111.052 6.72754 -83.1796C74.3656 -92.7148 119.672 -141.149 133.87 -164.175C170.789 -111.737 221.531 -79.1352 242.286 -69.3891C130.82 -8.47408 18.7037 -49.5335 -23.4211 -77.6775Z" fill="url(#paint1_linear_7689_267)" fill-opacity="0.3" style="mix-blend-mode:overlay"/>
</g>
<path d="M58.5 22C58.7652 22 59.0195 21.8946 59.2071 21.7071C59.3946 21.5196 59.5 21.2652 59.5 21V18C59.5 17.7348 59.3946 17.4804 59.2071 17.2929C59.0195 17.1054 58.7652 17 58.5 17V16.5C58.5 15.5717 58.8687 14.6815 59.5251 14.0251C60.1815 13.3687 61.0717 13 62 13C62.9282 13 63.8185 13.3687 64.4748 14.0251C65.1312 14.6815 65.5 15.5717 65.5 16.5V17C65.2348 17 64.9804 17.1054 64.7929 17.2929C64.6053 17.4804 64.5 17.7348 64.5 18V21H63C62.8674 21 62.7402 21.0527 62.6464 21.1464C62.5527 21.2402 62.5 21.3674 62.5 21.5C62.5 21.6326 62.5527 21.7598 62.6464 21.8536C62.7402 21.9473 62.8674 22 63 22H65.5C66.073 21.9983 66.628 21.7998 67.0721 21.4377C67.5163 21.0757 67.8225 20.572 67.9397 20.0111C68.0568 19.4502 67.9778 18.8661 67.7157 18.3565C67.4536 17.847 67.0244 17.4429 66.5 17.212V16.5C66.5 15.3065 66.0259 14.1619 65.182 13.318C64.338 12.4741 63.1934 12 62 12C60.8065 12 59.6619 12.4741 58.818 13.318C57.9741 14.1619 57.5 15.3065 57.5 16.5V17.212C56.9756 17.4429 56.5464 17.847 56.2843 18.3565C56.0222 18.8661 55.9431 19.4502 56.0603 20.0111C56.1774 20.572 56.4837 21.0757 56.9278 21.4377C57.3719 21.7998 57.927 21.9983 58.5 22Z" fill="white"/>
<path d="M76.98 18.12L75.61 20.5H74.06L76.25 16.97L74.19 13.61H75.75L76.98 15.82L78.21 13.61H79.75L77.71 16.97L79.89 20.5H78.34L76.98 18.12ZM81.0473 13.61H85.7973V14.84H82.4173V16.42H85.3073V17.65H82.4173V19.28H85.7973V20.5H81.0473V13.61ZM89.3587 14.84V16.67C89.3587 17.2433 89.3254 17.7633 89.2588 18.23C89.1921 18.6967 89.0721 19.1 88.8988 19.44C88.7254 19.78 88.4821 20.0533 88.1688 20.26C87.8621 20.4667 87.4654 20.6033 86.9788 20.67L86.6787 19.55C86.9654 19.4567 87.1954 19.3367 87.3688 19.19C87.5421 19.0433 87.6754 18.8567 87.7688 18.63C87.8688 18.4033 87.9321 18.1333 87.9588 17.82C87.9921 17.5067 88.0088 17.1367 88.0088 16.71V13.61H92.5488V20.5H91.1588V14.84H89.3587ZM98.1834 20.5V14.84H95.6434V20.5H94.2734V13.61H99.5734V20.5H98.1834ZM101.258 13.61H106.008V14.84H102.628V16.42H105.518V17.65H102.628V19.28H106.008V20.5H101.258V13.61ZM108.88 16.67H110.28C110.593 16.67 110.83 16.5833 110.99 16.41C111.15 16.2367 111.23 16.02 111.23 15.76C111.23 15.4933 111.146 15.2733 110.98 15.1C110.82 14.9267 110.586 14.84 110.28 14.84H108.88V16.67ZM110.59 13.61C110.93 13.61 111.223 13.6767 111.47 13.81C111.716 13.9367 111.92 14.1033 112.08 14.31C112.246 14.5167 112.366 14.75 112.44 15.01C112.52 15.2633 112.56 15.5133 112.56 15.76C112.56 16.0133 112.513 16.2667 112.42 16.52C112.333 16.7733 112.203 17.0033 112.03 17.21C111.863 17.4167 111.653 17.5867 111.4 17.72C111.153 17.8467 110.87 17.91 110.55 17.91H108.88V20.5H107.51V13.61H110.59Z" fill="white"/>
<rect x="1" y="1" width="167" height="33" rx="9" stroke="url(#paint2_linear_7689_267)" stroke-width="2"/>
</g>
<defs>
<linearGradient id="paint0_linear_7689_267" x1="169" y1="35" x2="1.12391e-06" y2="-5.4269e-06" gradientUnits="userSpaceOnUse">
<stop stop-color="#323D45"/>
<stop offset="0.501962" stop-color="#6CA4B3"/>
<stop offset="1" stop-color="#323D45"/>
</linearGradient>
<linearGradient id="paint1_linear_7689_267" x1="94.2335" y1="19.0034" x2="93.5358" y2="-9.08057" gradientUnits="userSpaceOnUse">
<stop stop-color="white"/>
<stop offset="1" stop-color="#999999" stop-opacity="0"/>
</linearGradient>
<linearGradient id="paint2_linear_7689_267" x1="84" y1="35" x2="84" y2="-4.8126e-06" gradientUnits="userSpaceOnUse">
<stop stop-color="#A8ECFF"/>
<stop offset="1" stop-color="#A8ECFF" stop-opacity="0"/>
</linearGradient>
<clipPath id="clip0_7689_267">
<rect width="169" height="35" fill="white"/>
</clipPath>
</defs>
</svg>
