<svg width="169" height="35" viewBox="0 0 169 35" fill="none" xmlns="http://www.w3.org/2000/svg">
<g clip-path="url(#clip0_7689_311)">
<rect width="169" height="35" rx="10" fill="url(#paint0_linear_7689_311)"/>
<mask id="mask0_7689_311" style="mask-type:alpha" maskUnits="userSpaceOnUse" x="0" y="0" width="169" height="35">
<rect width="169" height="35" rx="10" fill="#2A2A2A"/>
</mask>
<g mask="url(#mask0_7689_311)">
<path d="M65.4556 24.3408C88.3162 29.0855 100.856 46.8445 104.268 55.131C84.9197 35.0482 57.375 33.4645 46.0213 35.183C62.7178 -10.6466 104.582 -8.10639 123.427 -1.10758C107.52 8.94442 105.026 37.5788 105.767 50.6396C97.7858 31.7683 79.0533 24.2567 70.6847 22.8598C82.1967 19.09 93.1948 23.2579 97.2548 25.8132C99.0322 14.5801 104.561 5.42375 107.103 2.24979C84.5974 1.26732 69.9608 16.5678 65.4556 24.3408Z" fill="white" fill-opacity="0.2"/>
<path d="M-23.4211 -77.6775C80.4929 -158.518 99.8185 -279.576 96.4919 -330C48.4798 -180.255 -86.9996 -103.77 -148.738 -84.2459C49.692 106.215 255.27 -10.7057 333.256 -92.9738C227.758 -104.311 143.954 -243.042 115.239 -310.991C121.754 -195.636 45.6125 -111.052 6.72754 -83.1796C74.3656 -92.7148 119.672 -141.149 133.87 -164.175C170.789 -111.737 221.531 -79.1352 242.286 -69.3891C130.82 -8.47407 18.7037 -49.5335 -23.4211 -77.6775Z" fill="url(#paint1_linear_7689_311)" fill-opacity="0.3" style="mix-blend-mode:overlay"/>
</g>
<g clip-path="url(#clip1_7689_311)">
<path d="M68.1641 23.625C68.1641 23.0425 67.6919 22.5703 67.1094 22.5703H62.8906C62.3081 22.5703 61.8359 23.0425 61.8359 23.625V24H68.1641V23.625Z" fill="white"/>
<path d="M70.2969 14.8359V14.1328H65.9899C65.8837 13.835 65.6494 13.6007 65.3516 13.4944V12H64.6484V13.4944C64.3506 13.6007 64.1163 13.835 64.0101 14.1328H59.7031V14.8359H60.5821L59 18.7031C59 19.6723 59.7886 20.4609 60.7578 20.4609H61.4609C62.4301 20.4609 63.2188 19.6723 63.2188 18.7031L61.6295 14.8359H64.0101C64.1163 15.1338 64.3506 15.3681 64.6485 15.4743V20.4995C63.9614 20.6401 63.4179 21.1799 63.2778 21.8672H66.7223C66.5822 21.1799 66.0387 20.6401 65.3516 20.4995V15.4743C65.6494 15.3681 65.8837 15.1338 65.99 14.8359H68.3634L66.7812 18.7031C66.7812 19.6723 67.5699 20.4609 68.5391 20.4609H69.2422C70.2114 20.4609 71 19.6723 71 18.7031L69.4107 14.8359H70.2969ZM62.3398 18.3516H59.879L61.1094 15.3983L62.3398 18.3516ZM70.121 18.3516H67.6602L68.8906 15.3983L70.121 18.3516Z" fill="white"/>
</g>
<path d="M81.64 16.28C81.4267 16.1 81.1967 15.9767 80.95 15.91C80.7033 15.8367 80.4633 15.8 80.23 15.8C80.0767 15.8 79.9233 15.8233 79.77 15.87C79.6167 15.91 79.48 15.98 79.36 16.08C79.24 16.18 79.14 16.31 79.06 16.47C78.9867 16.63 78.95 16.8233 78.95 17.05V19.06C78.95 19.2867 78.9867 19.48 79.06 19.64C79.14 19.7933 79.24 19.92 79.36 20.02C79.4867 20.12 79.6233 20.1933 79.77 20.24C79.9233 20.2867 80.0767 20.31 80.23 20.31C80.4633 20.31 80.6967 20.2767 80.93 20.21C81.17 20.1433 81.41 20.0167 81.65 19.83L82.3 20.89C82.0467 21.1033 81.7367 21.27 81.37 21.39C81.0033 21.51 80.6167 21.57 80.21 21.57C79.8833 21.57 79.5633 21.5233 79.25 21.43C78.9367 21.3367 78.6567 21.2 78.41 21.02C78.1633 20.8333 77.9633 20.6033 77.81 20.33C77.6567 20.05 77.58 19.7233 77.58 19.35V16.77C77.58 16.4033 77.6533 16.0833 77.8 15.81C77.9533 15.53 78.15 15.2967 78.39 15.11C78.6367 14.9233 78.9167 14.7833 79.23 14.69C79.5433 14.5967 79.8633 14.55 80.19 14.55C80.59 14.55 80.9733 14.6033 81.34 14.71C81.7133 14.8167 82.0333 14.9867 82.3 15.22L81.64 16.28ZM86.7355 19.84C86.4955 20.4733 86.2188 20.9233 85.9055 21.19C85.5988 21.45 85.2121 21.58 84.7455 21.58H84.0155V20.49H84.6355C84.8088 20.49 84.9455 20.46 85.0455 20.4C85.1455 20.34 85.2288 20.24 85.2955 20.1C85.3088 20.0667 85.3221 20.0367 85.3355 20.01C85.3488 19.9833 85.3621 19.9567 85.3755 19.93L83.1955 14.61H84.6255L85.4455 16.85C85.5588 17.1567 85.6588 17.4433 85.7455 17.71C85.8388 17.9767 85.9155 18.1967 85.9755 18.37H86.0255L86.5755 16.77C86.5888 16.73 86.6155 16.6533 86.6555 16.54C86.7021 16.42 86.7521 16.2833 86.8055 16.13C86.8588 15.9767 86.9155 15.8167 86.9755 15.65C87.0355 15.4833 87.0921 15.3267 87.1455 15.18C87.1988 15.0333 87.2421 14.91 87.2755 14.81C87.3155 14.7033 87.3388 14.6367 87.3455 14.61H88.7055L86.7355 19.84ZM89.9186 20.29C90.0719 20.1767 90.2019 20.0433 90.3086 19.89C90.4153 19.73 90.5019 19.5367 90.5686 19.31C90.6419 19.0833 90.6986 18.82 90.7386 18.52C90.7786 18.2133 90.8086 17.8533 90.8286 17.44L90.9586 14.61H95.6186C95.6186 15.5633 95.6186 16.5133 95.6186 17.46C95.6253 18.4 95.6286 19.3467 95.6286 20.3H96.2286V23.04H94.9786V21.5H90.6586V23.04H89.4086V20.29H89.9186ZM92.1886 15.82L92.1086 17.47C92.0953 17.7633 92.0786 18.0433 92.0586 18.31C92.0386 18.57 92.0086 18.82 91.9686 19.06C91.9286 19.2933 91.8719 19.5167 91.7986 19.73C91.7253 19.9367 91.6253 20.1267 91.4986 20.3H94.2686V15.82H92.1886ZM99.0638 20.27H100.484C100.79 20.27 101.034 20.1833 101.214 20.01C101.4 19.8367 101.494 19.62 101.494 19.36C101.494 19.0933 101.4 18.8767 101.214 18.71C101.034 18.5433 100.787 18.46 100.474 18.46H99.0638V20.27ZM97.6938 21.5V14.61H99.0638V17.24H100.654C100.994 17.24 101.297 17.2933 101.564 17.4C101.83 17.5067 102.057 17.6533 102.244 17.84C102.43 18.0267 102.574 18.25 102.674 18.51C102.774 18.77 102.824 19.0533 102.824 19.36C102.824 19.6133 102.784 19.8667 102.704 20.12C102.624 20.3733 102.497 20.6033 102.324 20.81C102.157 21.01 101.94 21.1767 101.674 21.31C101.407 21.4367 101.084 21.5 100.704 21.5H97.6938ZM109.241 14.61V21.5H107.861V18.77H107.061C106.921 18.77 106.794 18.7833 106.681 18.81C106.567 18.8367 106.464 18.8833 106.371 18.95C106.277 19.0167 106.194 19.11 106.121 19.23C106.047 19.3433 105.984 19.4933 105.931 19.68L105.411 21.5H103.901L104.481 19.61C104.561 19.3567 104.651 19.1333 104.751 18.94C104.851 18.74 105.007 18.5833 105.221 18.47C105.014 18.41 104.841 18.32 104.701 18.2C104.561 18.0733 104.444 17.93 104.351 17.77C104.264 17.61 104.201 17.44 104.161 17.26C104.121 17.0733 104.101 16.89 104.101 16.71C104.101 16.45 104.141 16.1933 104.221 15.94C104.307 15.6867 104.437 15.4633 104.611 15.27C104.784 15.07 105.001 14.91 105.261 14.79C105.527 14.67 105.841 14.61 106.201 14.61H109.241ZM107.861 15.84H106.481C106.141 15.84 105.891 15.9233 105.731 16.09C105.571 16.2567 105.491 16.4833 105.491 16.77C105.491 17.0367 105.574 17.24 105.741 17.38C105.907 17.5133 106.147 17.58 106.461 17.58H107.861V15.84Z" fill="white"/>
<rect x="1" y="1" width="167" height="33" rx="9" stroke="url(#paint2_linear_7689_311)" stroke-width="2"/>
</g>
<defs>
<linearGradient id="paint0_linear_7689_311" x1="169" y1="35" x2="1.12391e-06" y2="-5.4269e-06" gradientUnits="userSpaceOnUse">
<stop stop-color="#4A2838"/>
<stop offset="0.501962" stop-color="#B15D85"/>
<stop offset="1" stop-color="#4A2838"/>
</linearGradient>
<linearGradient id="paint1_linear_7689_311" x1="94.2335" y1="19.0034" x2="93.5358" y2="-9.08056" gradientUnits="userSpaceOnUse">
<stop stop-color="white"/>
<stop offset="1" stop-color="#999999" stop-opacity="0"/>
</linearGradient>
<linearGradient id="paint2_linear_7689_311" x1="84" y1="35" x2="84" y2="-4.8126e-06" gradientUnits="userSpaceOnUse">
<stop stop-color="#FF70A9"/>
<stop offset="1" stop-color="#FF70A9" stop-opacity="0"/>
</linearGradient>
<clipPath id="clip0_7689_311">
<rect width="169" height="35" fill="white"/>
</clipPath>
<clipPath id="clip1_7689_311">
<rect width="12" height="12" fill="white" transform="translate(59 12)"/>
</clipPath>
</defs>
</svg>
