<svg version="1.2" xmlns="http://www.w3.org/2000/svg" viewBox="0 0 169 35" width="169" height="35"><defs><clipPath clipPathUnits="userSpaceOnUse" id="cp1"><path d="m0 0h169v35h-169z"/></clipPath><clipPath clipPathUnits="userSpaceOnUse" id="cp2"><path d="m169 0h-169v35h169z"/></clipPath><linearGradient id="P" gradientUnits="userSpaceOnUse"/><linearGradient id="g1" x2="1" href="#P" gradientTransform="matrix(-169,-35,13.447,-64.928,169,35)"><stop stop-color="#4a2838"/><stop offset=".5" stop-color="#b15d85"/><stop offset="1" stop-color="#4a2838"/></linearGradient><clipPath clipPathUnits="userSpaceOnUse" id="cp3"><path d="m159 0h-149c-5.52 0-10 4.48-10 10v15c0 5.52 4.48 10 10 10h149c5.52 0 10-4.48 10-10v-15c0-5.52-4.48-10-10-10z"/></clipPath><linearGradient id="g2" x2="1" href="#P" gradientTransform="matrix(-0.698,-28.084,38.869,-0.966,94.233,19.003)"><stop stop-color="#fff" stop-opacity="1"/><stop offset="1" stop-color="#999" stop-opacity="0"/></linearGradient><clipPath clipPathUnits="userSpaceOnUse" id="cp4"><path d="m71 12h-12v12h12z"/></clipPath><linearGradient id="g3" x2="1" href="#P" gradientTransform="matrix(0,-35,177.121,0,84,35)"><stop stop-color="#ff70a9" stop-opacity="1"/><stop offset="1" stop-color="#ff70a9" stop-opacity="0"/></linearGradient></defs><style>.a{fill:url(#g1)}.b{opacity:.2;fill:#fff}.c{opacity:.3;mix-blend-mode:overlay;fill:url(#g2)}.d{fill:#fff}.e{opacity:.35;fill:#b15d85}.f{fill:none;stroke:url(#g3);stroke-width:2}</style><g clip-path="url(#cp1)"><g clip-path="url(#cp2)"><path class="a" d="m159 0h-149c-5.5 0-10 4.5-10 10v15c0 5.5 4.5 10 10 10h149c5.5 0 10-4.5 10-10v-15c0-5.5-4.5-10-10-10z"/><g clip-path="url(#cp3)"><path class="b" d="m65.5 24.3c22.8 4.8 35.4 22.5 38.8 30.8-19.4-20.1-46.9-21.6-58.3-19.9 16.7-45.8 58.6-43.3 77.4-36.3-15.9 10-18.4 38.7-17.6 51.7-8-18.8-26.7-26.3-35.1-27.7 11.5-3.8 22.5 0.4 26.6 2.9 1.7-11.2 7.3-20.4 9.8-23.6-22.5-0.9-37.1 14.4-41.6 22.1z"/><path class="c" d="m-23.4-77.7c103.9-80.8 123.2-201.9 119.9-252.3-48 149.7-183.5 226.2-245.2 245.8 198.4 190.4 404 73.5 482-8.8-105.5-11.3-189.3-150-218.1-218 6.6 115.4-69.6 199.9-108.5 227.8 67.7-9.5 113-57.9 127.2-81 36.9 52.5 87.6 85.1 108.4 94.8-111.5 60.9-223.6 19.9-265.7-8.3z"/></g><g clip-path="url(#cp4)"><path class="d" d="m68.2 23.6c0-0.6-0.5-1-1.1-1h-4.2c-0.6 0-1.1 0.4-1.1 1v0.4h6.4z"/><path class="d" d="m70.3 14.8v-0.7h-4.3c-0.1-0.3-0.4-0.5-0.6-0.6v-1.5h-0.8v1.5c-0.2 0.1-0.5 0.3-0.6 0.6h-4.3v0.7h0.9l-1.6 3.9c0 1 0.8 1.8 1.8 1.8h0.7c0.9 0 1.7-0.8 1.7-1.8l-1.6-3.9h2.4c0.1 0.3 0.4 0.6 0.6 0.7v5c-0.6 0.1-1.2 0.7-1.3 1.4h3.4c-0.1-0.7-0.7-1.3-1.3-1.4v-5c0.2-0.1 0.5-0.4 0.6-0.7h2.4l-1.6 3.9c0 1 0.8 1.8 1.7 1.8h0.7c1 0 1.8-0.8 1.8-1.8l-1.6-3.9zm-7.9 3.6h-2.5l1.2-3zm7.8 0h-2.5l1.3-3z"/></g><path class="e" d="m191.3 187.3h-1.2l-0.2 0.7h-0.7l1.2-3.4h0.7l1.2 3.4h-0.8zm-1-0.6h0.9l-0.2-0.4-0.2-0.9h-0.1l-0.2 0.9zm4.1-2.2q0.2 0 0.4 0.1 0.2 0.1 0.3 0.3 0.1 0.1 0.2 0.3 0.1 0.2 0.1 0.4 0 0.1-0.1 0.3 0 0.1-0.1 0.2-0.1 0.2-0.2 0.3-0.1 0.1-0.2 0.1l0.6 1.5h-0.7q0-0.1-0.1-0.2 0-0.1-0.1-0.2 0-0.2-0.1-0.3-0.1-0.1-0.1-0.3-0.1-0.1-0.1-0.2 0-0.1-0.1-0.1h-0.6v1.3h-0.7v-3.5zm-0.8 1.5h0.7q0.2 0 0.3-0.1 0.2-0.1 0.2-0.3 0-0.2-0.2-0.3-0.1-0.2-0.3-0.2h-0.7zm3.3-1.5v3.4h-0.7v-3.4zm0.8 2.8l1.6-2.2h-1.5v-0.6h2.3v0.6l-1.6 2.2h1.6v0.6h-2.4zm5.7-0.5q0 0.3-0.1 0.5-0.1 0.2-0.3 0.4-0.1 0.1-0.4 0.2-0.2 0.1-0.5 0.1-0.3 0-0.5-0.1-0.2-0.1-0.4-0.2-0.2-0.2-0.3-0.4-0.1-0.2-0.1-0.5v-1.2q0-0.3 0.1-0.5 0.1-0.2 0.3-0.4 0.2-0.1 0.4-0.2 0.3-0.1 0.5-0.1 0.3 0 0.5 0.1 0.2 0.1 0.4 0.2 0.2 0.2 0.3 0.4 0.1 0.2 0.1 0.5zm-0.7-1.1q0-0.2 0-0.3-0.1-0.1-0.2-0.2 0-0.1-0.2-0.1-0.1-0.1-0.2-0.1-0.1 0-0.2 0.1-0.1 0-0.2 0.1-0.1 0.1-0.2 0.2 0 0.1 0 0.3v1q0 0.1 0 0.3 0.1 0.1 0.2 0.1 0.1 0.1 0.2 0.2 0.1 0 0.2 0 0.1 0 0.2 0 0.2-0.1 0.2-0.2 0.1 0 0.2-0.1 0-0.2 0-0.3zm2.2 0v2.2h-0.6v-3.5h0.6l0.8 1.2 0.6 1v-2.2h0.7v3.5h-0.6l-0.9-1.3-0.5-0.9zm4.8 1.5h-1.2l-0.2 0.7h-0.8l1.3-3.5h0.7l1.2 3.5h-0.8zm-1-0.6h0.8l-0.1-0.4-0.3-0.9-0.3 0.9zm6.6 0.2q0 0.3-0.1 0.5-0.1 0.2-0.2 0.3-0.2 0.1-0.5 0.2-0.2 0.1-0.5 0.1-0.4 0-0.7-0.1-0.3-0.1-0.6-0.4l0.4-0.5q0.2 0.2 0.4 0.3 0.3 0.1 0.5 0.1 0.2 0 0.3-0.1 0.1 0 0.2-0.1 0 0 0.1-0.1 0-0.1 0-0.1 0-0.2-0.1-0.2 0-0.1-0.1-0.2-0.1 0-0.3-0.1-0.1 0-0.3-0.1-0.2 0-0.4-0.1-0.2 0-0.3-0.2-0.1-0.1-0.2-0.2-0.1-0.2-0.1-0.4 0-0.2 0.1-0.4 0.1-0.2 0.2-0.4 0.2-0.1 0.4-0.2 0.2-0.1 0.5-0.1 0.3 0 0.6 0.1 0.3 0.1 0.6 0.3l-0.3 0.5q-0.2-0.1-0.4-0.2-0.3 0-0.5 0-0.1 0-0.2 0-0.1 0-0.1 0.1-0.1 0-0.2 0.1 0 0.1 0 0.2 0 0.1 0 0.1 0.1 0.1 0.2 0.2 0.1 0 0.2 0.1 0.2 0 0.4 0 0.5 0.2 0.8 0.4 0.2 0.2 0.2 0.6zm2.7-1.2l-0.2 0.9-0.4 1.3h-0.7l-0.9-3.4h0.7l0.3 1.4 0.3 1 0.3-1.1 0.3-1.3h0.6l0.4 1.4 0.3 1 0.2-1 0.3-1.4h0.7l-0.8 3.4h-0.8l-0.3-1.3-0.3-0.9zm4.6 1.5h-1.2l-0.2 0.7h-0.7l1.2-3.4h0.7l1.2 3.4h-0.8zm-1-0.5h0.8l-0.1-0.5-0.3-0.9-0.2 0.9zm5 0.8q-0.1 0.2-0.3 0.3-0.1 0.1-0.3 0.1-0.1 0.1-0.3 0.1-0.1 0-0.3 0-0.2 0-0.4 0-0.3-0.1-0.5-0.2-0.2-0.2-0.3-0.4-0.1-0.2-0.1-0.5v-1.3q0-0.2 0.1-0.4 0.1-0.2 0.3-0.4 0.2-0.1 0.5-0.2 0.2-0.1 0.4-0.1 0.3 0 0.6 0.1 0.3 0.1 0.5 0.3l-0.3 0.5q-0.2-0.1-0.4-0.2-0.2-0.1-0.3-0.1-0.2 0.1-0.3 0.1-0.1 0-0.2 0.1-0.1 0.1-0.1 0.2-0.1 0.1-0.1 0.3v1q0 0.1 0.1 0.3 0 0.1 0.1 0.2 0.1 0 0.2 0.1 0.1 0 0.2 0 0.1 0 0.3 0 0.1-0.1 0.2-0.1v-0.6h-0.5v-0.6h1.2z"/><path class="d" d="m81.6 16.3q-0.3-0.3-0.6-0.4-0.4-0.1-0.8-0.1-0.2 0-0.4 0.1-0.3 0-0.4 0.2-0.2 0.1-0.3 0.4-0.1 0.2-0.1 0.6v2q0 0.3 0.1 0.5 0.1 0.3 0.3 0.4 0.2 0.2 0.4 0.2 0.2 0.1 0.4 0.1 0.4 0 0.7-0.1 0.4-0.1 0.8-0.4l0.6 1.1q-0.4 0.3-0.9 0.5-0.6 0.2-1.2 0.2-0.5 0-0.9-0.2-0.5-0.1-0.9-0.4-0.4-0.3-0.6-0.7-0.2-0.4-0.2-0.9v-2.6q0-0.6 0.2-1 0.2-0.4 0.6-0.7 0.4-0.3 0.8-0.4 0.5-0.1 1-0.2 0.6 0 1.1 0.2 0.6 0.2 1 0.5zm5.1 3.6q-0.4 0.9-0.8 1.3-0.5 0.4-1.2 0.4h-0.7v-1.1h0.6q0.3 0 0.4-0.1 0.2-0.1 0.3-0.3 0 0 0 0 0-0.1 0-0.1l-2.1-5.4h1.4l0.8 2.3q0.2 0.5 0.3 0.9 0.1 0.4 0.2 0.6h0.1l0.5-1.6q0.1-0.1 0.1-0.2 0.1-0.2 0.2-0.4 0-0.3 0.1-0.5 0.1-0.3 0.2-0.5 0.1-0.2 0.1-0.4 0.1-0.1 0.1-0.2h1.4zm3.1 0.5q0.3-0.2 0.4-0.4 0.2-0.2 0.3-0.6 0.1-0.3 0.2-0.8 0-0.4 0.1-1l0.1-2.9h4.6q0 1.4 0 2.9 0.1 1.4 0.1 2.8h0.6v2.7h-1.3v-1.5h-4.3v1.5h-1.3v-2.7zm2.3-4.5l-0.1 1.7q0 0.4 0 0.8-0.1 0.4-0.1 0.8-0.1 0.3-0.2 0.6-0.1 0.4-0.3 0.6h2.8v-4.5zm5.5 5.7v-6.9h1.4v2.6h1.6q0.5 0 0.9 0.2 0.4 0.2 0.6 0.4 0.3 0.3 0.5 0.7 0.1 0.4 0.1 0.9 0 0.4-0.1 0.7-0.1 0.4-0.4 0.7-0.2 0.3-0.6 0.5-0.4 0.2-1 0.2zm1.4-1.2h1.4q0.5 0 0.7-0.3 0.3-0.2 0.3-0.6 0-0.4-0.3-0.7-0.2-0.2-0.7-0.2h-1.4zm10.2-5.7v6.9h-1.4v-2.7h-0.8q-0.2 0-0.4 0-0.2 0.1-0.3 0.1-0.2 0.2-0.3 0.3-0.1 0.2-0.2 0.5l-0.5 1.8h-1.5l0.6-1.9q0.1-0.4 0.3-0.7 0.1-0.3 0.4-0.4-0.3-0.1-0.5-0.3-0.2-0.2-0.3-0.4-0.2-0.3-0.2-0.5-0.1-0.3-0.1-0.6 0-0.4 0.1-0.8 0.2-0.3 0.4-0.6 0.3-0.3 0.7-0.5 0.4-0.2 0.9-0.2zm-1.4 1.2h-1.3q-0.6 0-0.8 0.3-0.2 0.2-0.2 0.7 0 0.4 0.2 0.6 0.3 0.2 0.7 0.2h1.4z"/><path class="f" d="m159 1h-149c-5 0-9 4-9 9v15c0 5 4 9 9 9h149c5 0 9-4 9-9v-15c0-5-4-9-9-9z"/></g></g></svg>