<svg width="169" height="35" viewBox="0 0 169 35" fill="none" xmlns="http://www.w3.org/2000/svg">
<g clip-path="url(#clip0_7689_370)">
<rect width="169" height="35" rx="10" fill="url(#paint0_linear_7689_370)"/>
<mask id="mask0_7689_370" style="mask-type:alpha" maskUnits="userSpaceOnUse" x="0" y="0" width="169" height="35">
<rect width="169" height="35" rx="10" fill="#2A2A2A"/>
</mask>
<g mask="url(#mask0_7689_370)">
<path d="M65.4556 24.3408C88.3162 29.0854 100.856 46.8445 104.268 55.131C84.9197 35.0482 57.375 33.4645 46.0213 35.183C62.7178 -10.6466 104.582 -8.1064 123.427 -1.10759C107.52 8.9444 105.026 37.5788 105.767 50.6396C97.7858 31.7683 79.0533 24.2567 70.6847 22.8598C82.1967 19.09 93.1948 23.2579 97.2548 25.8132C99.0322 14.58 104.561 5.42373 107.103 2.24978C84.5974 1.26731 69.9608 16.5678 65.4556 24.3408Z" fill="white" fill-opacity="0.2"/>
<path d="M-23.4211 -77.6775C80.4929 -158.518 99.8185 -279.576 96.4919 -330C48.4798 -180.255 -86.9996 -103.77 -148.738 -84.2459C49.692 106.215 255.27 -10.7057 333.256 -92.9738C227.758 -104.311 143.954 -243.042 115.239 -310.991C121.754 -195.636 45.6125 -111.052 6.72755 -83.1796C74.3656 -92.7148 119.672 -141.149 133.87 -164.175C170.789 -111.737 221.531 -79.1352 242.286 -69.3891C130.82 -8.47406 18.7037 -49.5335 -23.4211 -77.6775Z" fill="url(#paint1_linear_7689_370)" fill-opacity="0.3" style="mix-blend-mode:overlay"/>
</g>
<g clip-path="url(#clip1_7689_370)">
<path d="M54.5 14H53.95C53.834 13.4357 53.5269 12.9287 53.0806 12.5644C52.6343 12.2 52.0761 12.0007 51.5 12H50.5C49.9239 12.0007 49.3657 12.2 48.9194 12.5644C48.4731 12.9287 48.166 13.4357 48.05 14H47.5C46.8372 14.0008 46.2018 14.2644 45.7331 14.7331C45.2644 15.2018 45.0008 15.8372 45 16.5V18H57V16.5C56.9992 15.8372 56.7356 15.2018 56.2669 14.7331C55.7982 14.2644 55.1628 14.0008 54.5 14ZM49.092 14C49.195 13.7085 49.3856 13.456 49.6377 13.277C49.8897 13.098 50.1909 13.0013 50.5 13H51.5C51.8091 13.0013 52.1103 13.098 52.3623 13.277C52.6144 13.456 52.805 13.7085 52.908 14H49.092Z" fill="white"/>
<path d="M51.5 19.5C51.5 19.6326 51.4473 19.7598 51.3536 19.8536C51.2598 19.9473 51.1326 20 51 20C50.8674 20 50.7402 19.9473 50.6464 19.8536C50.5527 19.7598 50.5 19.6326 50.5 19.5V19H45V21.5C45.0008 22.1628 45.2644 22.7982 45.7331 23.2669C46.2018 23.7356 46.8372 23.9992 47.5 24H54.5C55.1628 23.9992 55.7982 23.7356 56.2669 23.2669C56.7356 22.7982 56.9992 22.1628 57 21.5V19H51.5V19.5Z" fill="white"/>
</g>
<path d="M68.84 19.3C68.84 19.6733 68.77 20 68.63 20.28C68.49 20.56 68.3 20.7967 68.06 20.99C67.82 21.1833 67.5367 21.33 67.21 21.43C66.89 21.5233 66.55 21.57 66.19 21.57C65.83 21.57 65.4867 21.5233 65.16 21.43C64.84 21.33 64.56 21.1833 64.32 20.99C64.08 20.7967 63.89 20.56 63.75 20.28C63.61 20 63.54 19.6733 63.54 19.3V16.77C63.54 16.4033 63.6133 16.08 63.76 15.8C63.9067 15.52 64.1033 15.2867 64.35 15.1C64.5967 14.9133 64.88 14.7733 65.2 14.68C65.52 14.5867 65.85 14.54 66.19 14.54C66.53 14.54 66.86 14.59 67.18 14.69C67.5 14.79 67.7833 14.9367 68.03 15.13C68.2767 15.3167 68.4733 15.5533 68.62 15.84C68.7667 16.12 68.84 16.4433 68.84 16.81V19.3ZM67.46 17.05C67.46 16.8233 67.4233 16.6333 67.35 16.48C67.2767 16.32 67.18 16.19 67.06 16.09C66.94 15.99 66.8033 15.9167 66.65 15.87C66.5033 15.8233 66.35 15.8 66.19 15.8C66.03 15.8 65.8733 15.8233 65.72 15.87C65.5667 15.9167 65.43 15.99 65.31 16.09C65.19 16.19 65.0933 16.32 65.02 16.48C64.9467 16.6333 64.91 16.8233 64.91 17.05V19.06C64.91 19.2867 64.9467 19.48 65.02 19.64C65.0933 19.8 65.19 19.93 65.31 20.03C65.43 20.13 65.5667 20.2033 65.72 20.25C65.8733 20.29 66.03 20.31 66.19 20.31C66.35 20.31 66.5033 20.29 66.65 20.25C66.8033 20.2033 66.94 20.13 67.06 20.03C67.18 19.93 67.2767 19.8 67.35 19.64C67.4233 19.48 67.46 19.2867 67.46 19.06V17.05ZM74.017 16.28C73.8036 16.1 73.5736 15.9767 73.327 15.91C73.0803 15.8367 72.8403 15.8 72.607 15.8C72.4536 15.8 72.3003 15.8233 72.147 15.87C71.9936 15.91 71.857 15.98 71.737 16.08C71.617 16.18 71.517 16.31 71.437 16.47C71.3636 16.63 71.327 16.8233 71.327 17.05V19.06C71.327 19.2867 71.3636 19.48 71.437 19.64C71.517 19.7933 71.617 19.92 71.737 20.02C71.8636 20.12 72.0003 20.1933 72.147 20.24C72.3003 20.2867 72.4536 20.31 72.607 20.31C72.8403 20.31 73.0736 20.2767 73.307 20.21C73.547 20.1433 73.787 20.0167 74.027 19.83L74.677 20.89C74.4236 21.1033 74.1136 21.27 73.747 21.39C73.3803 21.51 72.9936 21.57 72.587 21.57C72.2603 21.57 71.9403 21.5233 71.627 21.43C71.3136 21.3367 71.0336 21.2 70.787 21.02C70.5403 20.8333 70.3403 20.6033 70.187 20.33C70.0336 20.05 69.957 19.7233 69.957 19.35V16.77C69.957 16.4033 70.0303 16.0833 70.177 15.81C70.3303 15.53 70.527 15.2967 70.767 15.11C71.0136 14.9233 71.2936 14.7833 71.607 14.69C71.9203 14.5967 72.2403 14.55 72.567 14.55C72.967 14.55 73.3503 14.6033 73.717 14.71C74.0903 14.8167 74.4103 14.9867 74.677 15.22L74.017 16.28ZM79.4724 21.5V18.62H76.9324V21.5H75.5624V14.61H76.9324V17.38H79.4724V14.61H80.8624V21.5H79.4724ZM87.2873 19.3C87.2873 19.6733 87.2173 20 87.0773 20.28C86.9373 20.56 86.7473 20.7967 86.5073 20.99C86.2673 21.1833 85.9839 21.33 85.6573 21.43C85.3373 21.5233 84.9973 21.57 84.6373 21.57C84.2773 21.57 83.9339 21.5233 83.6073 21.43C83.2873 21.33 83.0073 21.1833 82.7673 20.99C82.5273 20.7967 82.3373 20.56 82.1973 20.28C82.0573 20 81.9873 19.6733 81.9873 19.3V16.77C81.9873 16.4033 82.0606 16.08 82.2073 15.8C82.3539 15.52 82.5506 15.2867 82.7973 15.1C83.0439 14.9133 83.3273 14.7733 83.6473 14.68C83.9673 14.5867 84.2973 14.54 84.6373 14.54C84.9773 14.54 85.3073 14.59 85.6273 14.69C85.9473 14.79 86.2306 14.9367 86.4773 15.13C86.7239 15.3167 86.9206 15.5533 87.0673 15.84C87.2139 16.12 87.2873 16.4433 87.2873 16.81V19.3ZM85.9073 17.05C85.9073 16.8233 85.8706 16.6333 85.7973 16.48C85.7239 16.32 85.6273 16.19 85.5073 16.09C85.3873 15.99 85.2506 15.9167 85.0973 15.87C84.9506 15.8233 84.7973 15.8 84.6373 15.8C84.4773 15.8 84.3206 15.8233 84.1673 15.87C84.0139 15.9167 83.8773 15.99 83.7573 16.09C83.6373 16.19 83.5406 16.32 83.4673 16.48C83.3939 16.6333 83.3573 16.8233 83.3573 17.05V19.06C83.3573 19.2867 83.3939 19.48 83.4673 19.64C83.5406 19.8 83.6373 19.93 83.7573 20.03C83.8773 20.13 84.0139 20.2033 84.1673 20.25C84.3206 20.29 84.4773 20.31 84.6373 20.31C84.7973 20.31 84.9506 20.29 85.0973 20.25C85.2506 20.2033 85.3873 20.13 85.5073 20.03C85.6273 19.93 85.7239 19.8 85.7973 19.64C85.8706 19.48 85.9073 19.2867 85.9073 19.06V17.05ZM93.6342 19.45C93.6342 19.73 93.5909 19.9933 93.5042 20.24C93.4176 20.4867 93.2909 20.7033 93.1242 20.89C92.9576 21.0767 92.7509 21.2267 92.5042 21.34C92.2576 21.4467 91.9709 21.5 91.6442 21.5H88.4142V14.61H91.5142C91.8609 14.61 92.1576 14.66 92.4042 14.76C92.6576 14.86 92.8642 14.9967 93.0242 15.17C93.1909 15.3433 93.3142 15.5433 93.3942 15.77C93.4742 15.9967 93.5142 16.2333 93.5142 16.48C93.5142 16.7333 93.4442 16.9933 93.3042 17.26C93.1709 17.5267 92.9576 17.7333 92.6642 17.88C92.8309 17.96 92.9742 18.0633 93.0942 18.19C93.2142 18.31 93.3142 18.4433 93.3942 18.59C93.4742 18.73 93.5342 18.8767 93.5742 19.03C93.6142 19.1767 93.6342 19.3167 93.6342 19.45ZM92.1042 16.61C92.1042 16.3567 92.0276 16.1633 91.8742 16.03C91.7276 15.8967 91.4942 15.83 91.1742 15.83H89.7842V17.34H91.1942C91.4809 17.34 91.7042 17.2733 91.8642 17.14C92.0242 17.0067 92.1042 16.83 92.1042 16.61ZM92.1842 19.41C92.1842 19.1433 92.1009 18.93 91.9342 18.77C91.7676 18.6033 91.5376 18.52 91.2442 18.52H89.7842V20.28H91.2542C91.5609 20.28 91.7909 20.2033 91.9442 20.05C92.1042 19.89 92.1842 19.6767 92.1842 19.41ZM98.4445 20.08H96.0445L95.5945 21.5H94.1345L96.5545 14.61H97.9545L100.354 21.5H98.8645L98.4445 20.08ZM96.4145 18.93H98.0745L97.8045 18.05L97.2645 16.23H97.2245L96.6945 18.02L96.4145 18.93ZM103.761 15.85V21.5H102.391V15.85H100.561V14.61H105.581V15.85H103.761ZM106.305 14.61H111.055V15.84H107.675V17.42H110.565V18.65H107.675V20.28H111.055V21.5H106.305V14.61ZM114.117 15.84V17.67C114.117 18.2433 114.083 18.7633 114.017 19.23C113.95 19.6967 113.83 20.1 113.657 20.44C113.483 20.78 113.24 21.0533 112.927 21.26C112.62 21.4667 112.223 21.6033 111.737 21.67L111.437 20.55C111.723 20.4567 111.953 20.3367 112.127 20.19C112.3 20.0433 112.433 19.8567 112.527 19.63C112.627 19.4033 112.69 19.1333 112.717 18.82C112.75 18.5067 112.767 18.1367 112.767 17.71V14.61H117.307V21.5H115.917V15.84H114.117ZM119.921 20.27H121.341C121.648 20.27 121.891 20.1833 122.071 20.01C122.258 19.8367 122.351 19.62 122.351 19.36C122.351 19.0933 122.258 18.8767 122.071 18.71C121.891 18.5433 121.645 18.46 121.331 18.46H119.921V20.27ZM118.551 21.5V14.61H119.921V17.24H121.511C121.851 17.24 122.155 17.2933 122.421 17.4C122.688 17.5067 122.915 17.6533 123.101 17.84C123.288 18.0267 123.431 18.25 123.531 18.51C123.631 18.77 123.681 19.0533 123.681 19.36C123.681 19.6133 123.641 19.8667 123.561 20.12C123.481 20.3733 123.355 20.6033 123.181 20.81C123.015 21.01 122.798 21.1767 122.531 21.31C122.265 21.4367 121.941 21.5 121.561 21.5H118.551Z" fill="white"/>
<rect x="1" y="1" width="167" height="33" rx="9" stroke="url(#paint2_linear_7689_370)" stroke-width="2"/>
</g>
<defs>
<linearGradient id="paint0_linear_7689_370" x1="169" y1="35" x2="1.12391e-06" y2="-5.4269e-06" gradientUnits="userSpaceOnUse">
<stop stop-color="#532424"/>
<stop offset="0.501962" stop-color="#D55050"/>
<stop offset="1" stop-color="#532424"/>
</linearGradient>
<linearGradient id="paint1_linear_7689_370" x1="94.2335" y1="19.0034" x2="93.5358" y2="-9.08056" gradientUnits="userSpaceOnUse">
<stop stop-color="white"/>
<stop offset="1" stop-color="#999999" stop-opacity="0"/>
</linearGradient>
<linearGradient id="paint2_linear_7689_370" x1="84" y1="35" x2="84" y2="-4.8126e-06" gradientUnits="userSpaceOnUse">
<stop stop-color="#FC6666"/>
<stop offset="1" stop-color="#FF5353" stop-opacity="0"/>
</linearGradient>
<clipPath id="clip0_7689_370">
<rect width="169" height="35" fill="white"/>
</clipPath>
<clipPath id="clip1_7689_370">
<rect width="12" height="12" fill="white" transform="translate(45 12)"/>
</clipPath>
</defs>
</svg>
