<svg version="1.2" xmlns="http://www.w3.org/2000/svg" viewBox="0 0 169 35" width="169" height="35"><defs><clipPath clipPathUnits="userSpaceOnUse" id="cp1"><path d="m0 0h169v35h-169z"/></clipPath><linearGradient id="P" gradientUnits="userSpaceOnUse"/><linearGradient id="g1" x2="1" href="#P" gradientTransform="matrix(-169,-35,13.447,-64.928,169,35)"><stop stop-color="#532424"/><stop offset=".5" stop-color="#f00"/><stop offset="1" stop-color="#532424"/></linearGradient><clipPath clipPathUnits="userSpaceOnUse" id="cp2"><path d="m10 0h149c5.52 0 10 4.48 10 10v15c0 5.52-4.48 10-10 10h-149c-5.52 0-10-4.48-10-10v-15c0-5.52 4.48-10 10-10z"/></clipPath><linearGradient id="g2" x2="1" href="#P" gradientTransform="matrix(-0.698,-28.084,38.869,-0.966,94.233,19.003)"><stop stop-color="#fff" stop-opacity="1"/><stop offset="1" stop-color="#999" stop-opacity="0"/></linearGradient><clipPath clipPathUnits="userSpaceOnUse" id="cp3"><path d="m20 12h12v12h-12z"/></clipPath><linearGradient id="g3" x2="1" href="#P" gradientTransform="matrix(0,-35,177.121,0,84,35)"><stop stop-color="#ff5e5e" stop-opacity="1"/><stop offset="1" stop-color="#ff5353" stop-opacity="0"/></linearGradient></defs><style>.a{fill:url(#g1)}.b{opacity:.2;fill:#fff}.c{opacity:.3;mix-blend-mode:overlay;fill:url(#g2)}.d{fill:#fff}.e{fill:none;stroke:url(#g3);stroke-width:2}.f{opacity:.5;fill:none}</style><g clip-path="url(#cp1)"><path fill-rule="evenodd" class="a" d="m10 0h149c5.5 0 10 4.5 10 10v15c0 5.5-4.5 10-10 10h-149c-5.5 0-10-4.5-10-10v-15c0-5.5 4.5-10 10-10z"/><g clip-path="url(#cp2)"><path class="b" d="m65.5 24.3c22.8 4.8 35.4 22.5 38.8 30.8-19.4-20.1-46.9-21.6-58.3-19.9 16.7-45.8 58.6-43.3 77.4-36.3-15.9 10-18.4 38.7-17.6 51.7-8-18.8-26.7-26.3-35.1-27.7 11.5-3.8 22.5 0.4 26.6 2.9 1.7-11.2 7.3-20.4 9.8-23.6-22.5-0.9-37.1 14.4-41.6 22.1z"/><path class="c" d="m-23.4-77.7c103.9-80.8 123.2-201.9 119.9-252.3-48 149.7-183.5 226.2-245.2 245.8 198.4 190.4 404 73.5 482-8.8-105.5-11.3-189.3-150-218.1-218 6.6 115.4-69.6 199.9-108.5 227.8 67.7-9.5 113-57.9 127.2-81 36.9 52.5 87.6 85.1 108.4 94.8-111.5 60.9-223.6 19.9-265.7-8.3z"/></g><g clip-path="url(#cp3)"><path class="d" d="m29.3 13.1l-3.1-1.1q-0.2 0-0.4 0l-3.1 1.1c-0.5 0.1-0.9 0.5-1.2 0.9-0.3 0.4-0.5 0.9-0.5 1.4v2.6c0 3.8 4.6 5.9 4.8 6q0.1 0 0.2 0 0.1 0 0.2 0c0.2-0.1 4.8-2.2 4.8-6v-2.6c0-0.5-0.2-1-0.5-1.4-0.3-0.4-0.7-0.8-1.2-0.9zm-0.9 3.8l-2.2 2.1q-0.1 0.1-0.3 0.2-0.2 0.1-0.3 0.1h-0.1q-0.2 0-0.3-0.1-0.2-0.1-0.3-0.2l-1.2-1.2q-0.1-0.1-0.1-0.2 0-0.1 0-0.2 0-0.1 0-0.2 0-0.1 0.1-0.2 0.1 0 0.2-0.1 0.1 0 0.2 0 0.1 0 0.2 0.1 0.1 0 0.1 0.1l1.2 1.2 2-2.2q0.2-0.1 0.4-0.1 0.2 0 0.4 0.2 0.1 0.1 0.1 0.3 0 0.2-0.1 0.4z"/></g><path class="d" d="m287.6-18.7q-0.3-0.3-0.7-0.4-0.3-0.1-0.7-0.1-0.2 0-0.4 0.1-0.3 0-0.4 0.2-0.2 0.1-0.3 0.4-0.1 0.2-0.2 0.6v2q0.1 0.3 0.2 0.5 0.1 0.3 0.3 0.4 0.1 0.2 0.4 0.2 0.2 0.1 0.4 0.1 0.4 0 0.7-0.1 0.4-0.1 0.7-0.4l0.7 1.1q-0.4 0.3-0.9 0.5-0.6 0.2-1.2 0.2-0.5 0-1-0.2-0.4-0.1-0.8-0.4-0.4-0.3-0.6-0.7-0.2-0.4-0.2-0.9v-2.6q0-0.6 0.2-1 0.2-0.4 0.6-0.7 0.4-0.3 0.8-0.4 0.5-0.1 1-0.2 0.6 0 1.1 0.2 0.6 0.2 1 0.5zm5.5 5.2v-5.6h-2.6v5.6h-1.4v-6.9h5.3v6.9zm2.6-6.9h4.8v1.3h-3.4v1.6h2.9v1.2h-2.9v1.6h3.4v1.2h-4.8zm11.1 0v5.7h0.6v2.8h-1.3v-1.6h-4.6v-6.9h1.3v5.7h2.6v-5.7zm2.3 7q-0.4 0-0.6-0.2-0.2-0.3-0.2-0.6 0-0.3 0.2-0.6 0.2-0.2 0.5-0.2 0.4 0 0.6 0.2 0.2 0.3 0.2 0.6 0 0.3-0.2 0.6-0.2 0.2-0.5 0.2zm8.3-1.5h-2.4l-0.5 1.4h-1.4l2.4-6.9h1.4l2.4 6.9h-1.5zm-2-1.1h1.6l-0.2-0.9-0.6-1.8-0.5 1.8zm4.6 1.3q0.2-0.1 0.4-0.4 0.1-0.2 0.2-0.6 0.2-0.3 0.2-0.7 0.1-0.5 0.1-1.1l0.1-2.9h4.7q0 1.5 0 2.9 0 1.4 0 2.8h0.6v2.8h-1.2v-1.6h-4.4v1.6h-1.2v-2.8zm2.3-4.4l-0.1 1.6q0 0.4-0.1 0.8 0 0.4-0.1 0.8 0 0.3-0.1 0.7-0.1 0.3-0.3 0.5h2.7v-4.4zm10.3 1.9l-0.6 1.3-0.8 1.5h-1l-0.8-1.5-0.7-1.3v3.7h-1.4v-6.8l1.3-0.1 1.2 2.5 0.9 1.7 0.9-1.8 1.1-2.4h1.3v6.9h-1.4v-3.7zm6.8-0.7l-0.7 1q-0.1 0.2-0.3 0.5-0.2 0.2-0.4 0.6-0.2 0.3-0.4 0.6-0.2 0.4-0.5 0.7-0.2 0.3-0.3 0.6-0.2 0.2-0.3 0.4h-1.3v-6.9h1.4v4.6l1.5-2.3 1.4-2.3h1.3v6.9h-1.4v-4.4zm6.5 4.4v-2.8h-2.5v2.8h-1.4v-6.9h1.4v2.8h2.5v-2.8h1.4v6.9zm6.7-4.4l-0.7 1q-0.1 0.2-0.3 0.5-0.1 0.2-0.3 0.6-0.3 0.3-0.5 0.6-0.2 0.4-0.4 0.7-0.2 0.3-0.4 0.6-0.2 0.2-0.3 0.4h-1.2v-6.8l1.3-0.1v4.6h0.1l1.4-2.3 1.5-2.3h1.2v6.9h-1.3v-4.4zm6.6-0.8q-0.3-0.2-0.7-0.3-0.3-0.2-0.7-0.2-0.2 0-0.4 0.1-0.3 0.1-0.5 0.2-0.1 0.2-0.3 0.4-0.1 0.2-0.1 0.6v2q0 0.3 0.1 0.6 0.2 0.2 0.3 0.4 0.2 0.1 0.5 0.2 0.2 0.1 0.4 0 0.4 0.1 0.7 0 0.4-0.1 0.7-0.4l0.7 1q-0.4 0.3-0.9 0.5-0.6 0.2-1.2 0.2-0.5 0-1-0.1-0.4-0.2-0.8-0.4-0.4-0.3-0.6-0.7-0.2-0.5-0.2-1v-2.6q0-0.5 0.2-0.9 0.2-0.5 0.6-0.8 0.3-0.2 0.8-0.4 0.5-0.1 1-0.1 0.6 0 1.1 0.2 0.6 0.1 1 0.5zm4.3-0.5v5.7h-1.4v-5.7h-1.8v-1.2h5v1.2zm5.6-1.2q0.5 0 0.9 0.2 0.3 0.2 0.6 0.5 0.2 0.3 0.3 0.7 0.2 0.4 0.2 0.7 0 0.4-0.2 0.8-0.1 0.4-0.4 0.7-0.2 0.3-0.6 0.5-0.4 0.2-0.8 0.2h-1.7v2.6h-1.4v-6.9zm-1.7 3.1h1.4q0.5-0.1 0.7-0.3 0.3-0.3 0.3-0.7 0-0.4-0.3-0.6-0.2-0.3-0.7-0.3h-1.4zm8.2 2.4h-2.4l-0.5 1.4h-1.4l2.4-6.8h1.4l2.4 6.8h-1.5zm-2-1.1h1.6l-0.2-0.9-0.6-1.8-0.5 1.8zm7.3-3.1v5.7h-1.4v-5.7h-1.8v-1.2h5v1.2zm7.8 3.5q0 0.5-0.2 0.9-0.2 0.5-0.6 0.7-0.3 0.3-0.8 0.5-0.5 0.1-1 0.1-0.6 0-1.1-0.1-0.4-0.2-0.8-0.5-0.4-0.2-0.6-0.7-0.2-0.4-0.2-0.9v-2.6q0-0.5 0.2-0.9 0.3-0.5 0.6-0.7 0.4-0.3 0.9-0.5 0.5-0.1 1-0.1 0.5 0 1 0.1 0.4 0.2 0.8 0.5 0.4 0.3 0.6 0.7 0.2 0.4 0.2 1zm-1.4-2.3q0-0.3-0.1-0.6-0.1-0.2-0.3-0.3-0.1-0.2-0.4-0.3-0.2 0-0.4 0-0.3 0-0.5 0-0.2 0.1-0.4 0.3-0.2 0.1-0.3 0.3-0.1 0.3-0.1 0.6v2q0 0.4 0.1 0.6 0.1 0.2 0.3 0.4 0.2 0.1 0.4 0.2 0.2 0.1 0.5 0.1 0.2 0 0.4-0.1 0.3-0.1 0.4-0.2 0.2-0.2 0.3-0.4 0.1-0.2 0.1-0.6zm5.6-2.4q0.5 0 0.9 0.2 0.4 0.2 0.6 0.5 0.3 0.3 0.4 0.7 0.1 0.4 0.1 0.7 0 0.4-0.2 0.8-0.1 0.4-0.3 0.7-0.3 0.3-0.7 0.5-0.3 0.2-0.8 0.2h-1.7v2.6h-1.4v-6.9zm-1.7 3h1.4q0.5 0 0.7-0.2 0.3-0.3 0.3-0.7 0-0.4-0.3-0.6-0.2-0.3-0.7-0.3h-1.4z"/><path class="d" d="m42.3 16.8c0.1-1.4-0.9-2.2-2.3-2.2-1.7 0-3.1 1.2-3.4 3.2-0.3 2 0.7 3.3 2.4 3.3 1.5 0 2.6-1 3-2.2h-1.2c-0.2 0.7-0.9 1.2-1.7 1.2-1 0-1.6-0.8-1.4-2.2 0.3-1.5 1.2-2.3 2.2-2.3 0.8 0 1.3 0.5 1.3 1.2zm6.1-2.1h-5l-1.1 6.3h1.1l0.9-5.4h2.8l-0.9 5.4h1.2zm0.7 6.3h4.2l0.1-0.9h-3l0.3-1.8h2.8l0.1-0.9h-2.7l0.3-1.7h2.9l0.2-1h-4.1zm11-1h-0.8l0.9-5.3h-1.1l-0.9 5.3h-2.8l0.8-5.3h-1.1l-1 6.3h4.7l-0.3 1.5h1.1zm1.7 1c0.4 0 0.7-0.3 0.7-0.7 0-0.3-0.3-0.6-0.6-0.6-0.4 0-0.7 0.3-0.7 0.6-0.1 0.4 0.2 0.7 0.6 0.7zm5.1 0l0.8-1.6h2.4l0.2 1.6h1.3l-1.2-6.4h-1.4l-3.3 6.4zm1.2-2.5l1.3-2.6h0.1l0.4 2.6zm3.3 4h1.1l0.2-1.5h4.1l-0.3 1.5h1.1l0.4-2.5h-0.7l0.9-5.4h-4l-0.7 2.7c-0.3 1.7-0.8 2.4-1.3 2.7h-0.4zm2.1-2.4c0.5-0.6 0.9-1.5 1.1-2.8l0.4-1.7h1.9l-0.7 4.5zm6.6-5.4l-1.1 6.3h1.1l0.7-4.4h0.1l1 4.4h0.8l2.5-4.4h0.1l-0.8 4.4h1.1l1.1-6.3h-1.4l-2.6 4.5h-0.1l-1.1-4.5zm8 0l-1.1 6.3h1l3.7-4.3h0.1l-0.7 4.3h1.1l1.1-6.3h-1.1l-3.7 4.3 0.7-4.3zm4.9 6.3h1.2l0.4-2.7h3l-0.5 2.7h1.2l1-6.3h-1.1l-0.5 2.6h-2.9l0.4-2.6h-1.1zm7-6.4l-1 6.4h1l3.7-4.3h0.1l-0.7 4.3h1.1l1.1-6.4h-1.1l-3.7 4.4 0.7-4.4zm12 2.2c0.1-1.4-0.9-2.2-2.3-2.2-1.6 0-3 1.1-3.4 3.1-0.3 2.1 0.7 3.4 2.4 3.4 1.5 0 2.6-1 3-2.2h-1.1c-0.3 0.7-1 1.1-1.8 1.1-1 0-1.6-0.7-1.4-2.1 0.3-1.5 1.2-2.3 2.3-2.3 0.7 0 1.2 0.4 1.2 1.2zm0.5-1.2h2l-0.9 5.4h1.1l0.9-5.4h2l0.1-1h-5zm5.4 5.4h1.1l0.4-2.1h1.2c1.4 0 2.4-0.9 2.6-2.1 0.2-1.2-0.5-2.1-1.9-2.1h-2.4zm1.7-3.1l0.3-2.3h1.1c0.9 0 1.2 0.5 1 1.2-0.1 0.6-0.5 1.1-1.4 1.1zm4.2 3.1l0.8-1.6h2.3l0.3 1.6h1.2l-1.2-6.3h-1.4l-3.2 6.3zm1.2-2.5l1.3-2.5 0.5 2.5zm4.5-2.9h2l-0.9 5.4h1.1l0.9-5.4h2l0.1-0.9h-5zm10.5 2.2c0.4-2-0.7-3.3-2.4-3.3-1.6 0-3 1.2-3.4 3.2-0.3 2.1 0.8 3.3 2.5 3.3 1.6 0 3-1.2 3.3-3.2zm-1.1-0.1c-0.2 1.5-1.1 2.3-2.2 2.3-1 0-1.6-0.8-1.3-2.2 0.2-1.4 1.1-2.3 2.2-2.3 1 0 1.5 0.8 1.3 2.2zm2 3.2h1.1l0.4-2.1h1.2c1.4 0 2.4-0.9 2.6-2.1 0.2-1.2-0.5-2.1-1.9-2.1h-2.4zm1.7-3.1l0.4-2.3h1c0.9 0 1.2 0.5 1.1 1.2-0.2 0.6-0.6 1.1-1.5 1.1z"/><path fill-rule="evenodd" class="e" d="m10 1h149c5 0 9 4 9 9v15c0 5-4 9-9 9h-149c-5 0-9-4-9-9v-15c0-5 4-9 9-9z"/></g><path class="f" d="m12.4 32.1c0.6 0 1.2-0.2 1.5-0.8h0.1l-0.1 0.7h1.6l0.6-3.4c0.1-0.9-0.6-1.6-2-1.6-1.5 0-2.3 0.8-2.6 1.7h1.7c0.1-0.3 0.3-0.5 0.7-0.5 0.3 0 0.4 0.2 0.4 0.4v0.1c0 0.2-0.4 0.3-1.2 0.4-1 0.1-1.9 0.5-2.1 1.5-0.1 1 0.5 1.5 1.4 1.5zm0.8-1.1c-0.3 0-0.5-0.2-0.5-0.5 0.1-0.2 0.3-0.4 0.7-0.5 0.3 0 0.5-0.1 0.7-0.1v0.4c-0.1 0.4-0.5 0.7-0.9 0.7zm2.8 1h1.8l0.4-2.6c0.1-0.5 0.6-0.9 1.1-0.9 0.2 0 0.5 0 0.6 0.1l0.3-1.5c-0.2 0-0.3-0.1-0.5-0.1-0.5 0-0.9 0.3-1.2 1h-0.1l0.2-0.9h-1.7zm4 0h1.7l0.8-4.9h-1.7zm1.8-5.4c0.4 0 0.9-0.4 0.9-0.8 0.1-0.5-0.2-0.8-0.7-0.8-0.5 0-0.9 0.3-1 0.8-0.1 0.4 0.3 0.8 0.8 0.8zm1.2 5.4h4.4l0.2-1.4h-2.1 0.1l2.3-2.5 0.2-1h-4.2l-0.2 1.3h2.1l-2.6 2.6zm7.3 0.1c1.6 0 2.7-1 2.9-2.5 0.3-1.5-0.5-2.6-2.1-2.6-1.6 0-2.7 1.1-2.9 2.6-0.3 1.5 0.5 2.5 2.1 2.5zm0.2-1.3c-0.5 0-0.7-0.5-0.5-1.2 0.1-0.8 0.4-1.3 0.9-1.3 0.5 0 0.7 0.5 0.5 1.3-0.1 0.7-0.4 1.2-0.9 1.2zm5.7-1.6c0-0.4 0.4-0.7 0.8-0.7 0.5 0 0.7 0.3 0.6 0.7l-0.5 2.8h1.8l0.5-3.1c0.2-1.1-0.4-1.9-1.4-1.9-0.7 0-1.4 0.4-1.7 1l0.1-0.9h-1.6l-0.9 4.9h1.8zm5.1 2.8c0.7 0 1.2-0.2 1.6-0.7l-0.1 0.7h1.6l0.6-3.4c0.2-0.9-0.6-1.6-2-1.6-1.5 0-2.3 0.8-2.5 1.7h1.6c0.1-0.3 0.3-0.5 0.7-0.5 0.3 0 0.5 0.2 0.4 0.4 0 0.3-0.3 0.4-1.2 0.5-1 0-1.9 0.4-2 1.5-0.2 1 0.4 1.4 1.3 1.4zm0.8-1.1c-0.3 0-0.5-0.1-0.5-0.4 0.1-0.2 0.3-0.4 0.7-0.5 0.3 0 0.6-0.1 0.7-0.2v0.4c-0.1 0.5-0.5 0.7-0.9 0.7zm4.6 2.9h1.7l0.5-2.6c0.1 0.5 0.5 0.8 1.2 0.8 1.1 0 2.1-0.8 2.4-2.5 0.3-1.8-0.5-2.5-1.5-2.5-0.7 0-1.3 0.4-1.5 0.9h-0.1l0.2-0.8h-1.8zm2.5-4.3c0.1-0.8 0.4-1.2 0.9-1.2 0.5 0 0.7 0.4 0.6 1.2-0.1 0.7-0.5 1.1-1 1.1-0.4 0-0.7-0.4-0.5-1.1zm4.2 2.5c0.6 0 1.1-0.2 1.5-0.8l-0.1 0.7h1.7l0.5-3.3c0.2-0.9-0.6-1.7-2-1.7-1.4 0-2.3 0.8-2.5 1.7h1.6c0.1-0.3 0.4-0.4 0.7-0.4 0.3 0 0.5 0.1 0.5 0.4-0.1 0.3-0.4 0.3-1.2 0.4-1.1 0.1-1.9 0.5-2.1 1.6-0.2 0.9 0.4 1.4 1.4 1.4zm0.7-1.1c-0.3 0-0.5-0.2-0.4-0.4 0-0.3 0.2-0.5 0.7-0.5 0.2-0.1 0.5-0.1 0.7-0.2l-0.1 0.4c-0.1 0.4-0.5 0.7-0.9 0.7zm3.9 1h1.8l0.4-2.5c0.1-0.6 0.5-1 1-1 0.2 0 0.5 0.1 0.7 0.1l0.2-1.5c-0.1 0-0.2-0.1-0.4-0.1-0.5 0-1 0.4-1.3 1l0.1-0.9h-1.7zm4 0h1.8l0.2-1.4 0.3-0.3 0.7 1.7h2.1l-1.3-2.7 2-2.2h-1.9l-1.5 1.7h-0.1l0.6-3.3h-1.8zm7.3 0.1c1.4 0 2.4-0.7 2.7-1.7h-1.6c-0.1 0.3-0.5 0.4-0.8 0.4-0.5 0-0.8-0.3-0.7-0.8v-0.1h3.2l0.1-0.4c0.2-1.5-0.6-2.5-2.1-2.5-1.5 0-2.6 1-2.9 2.5-0.2 1.6 0.6 2.6 2.1 2.6zm-0.2-3.2c0.1-0.4 0.5-0.7 0.9-0.7 0.4 0 0.7 0.3 0.6 0.7zm2.9 3.1h1.8l0.4-2.6c0.1-0.6 0.6-0.9 1.1-0.9 0.2 0 0.5 0 0.6 0.1l0.3-1.5c-0.2-0.1-0.3-0.1-0.4-0.1-0.6 0-1 0.3-1.3 1h-0.1l0.2-0.9h-1.7z"/></svg>