<svg width="169" height="35" viewBox="0 0 169 35" fill="none" xmlns="http://www.w3.org/2000/svg">
<g clip-path="url(#clip0_7689_382)">
<rect width="169" height="35" rx="10" fill="url(#paint0_linear_7689_382)"/>
<mask id="mask0_7689_382" style="mask-type:alpha" maskUnits="userSpaceOnUse" x="0" y="0" width="169" height="35">
<rect width="169" height="35" rx="10" fill="#2A2A2A"/>
</mask>
<g mask="url(#mask0_7689_382)">
<path d="M65.4556 24.3408C88.3162 29.0854 100.856 46.8445 104.268 55.131C84.9197 35.0482 57.375 33.4645 46.0213 35.183C62.7178 -10.6466 104.582 -8.1064 123.427 -1.10759C107.52 8.9444 105.026 37.5788 105.767 50.6396C97.7858 31.7683 79.0533 24.2567 70.6847 22.8598C82.1967 19.09 93.1948 23.2579 97.2548 25.8132C99.0322 14.58 104.561 5.42373 107.103 2.24978C84.5974 1.26731 69.9608 16.5678 65.4556 24.3408Z" fill="white" fill-opacity="0.2"/>
<path d="M-23.4211 -77.6775C80.4929 -158.518 99.8185 -279.576 96.4919 -330C48.4798 -180.255 -86.9996 -103.77 -148.738 -84.2459C49.692 106.215 255.27 -10.7057 333.256 -92.9738C227.758 -104.311 143.954 -243.042 115.239 -310.991C121.754 -195.636 45.6125 -111.052 6.72754 -83.1796C74.3656 -92.7148 119.672 -141.149 133.87 -164.175C170.789 -111.737 221.531 -79.1352 242.286 -69.3891C130.82 -8.47407 18.7037 -49.5335 -23.4211 -77.6775Z" fill="url(#paint1_linear_7689_382)" fill-opacity="0.3" style="mix-blend-mode:overlay"/>
</g>
<g clip-path="url(#clip1_7689_382)">
<path d="M46.8035 21C47.2171 21.7178 48.1343 21.9644 48.8521 21.5508C48.8526 21.5505 48.853 21.5503 48.8535 21.55L49.076 21.4215C49.496 21.7808 49.9788 22.0595 50.5 22.2435V22.5C50.5 23.3284 51.1716 24 52 24C52.8284 24 53.5 23.3284 53.5 22.5V22.2435C54.0213 22.0592 54.5041 21.7802 54.924 21.4205L55.1475 21.5495C55.8655 21.9637 56.7833 21.7175 57.1975 20.9995C57.6117 20.2815 57.3655 19.3637 56.6475 18.9495L56.4255 18.8215C56.5255 18.2777 56.5255 17.7203 56.4255 17.1765L56.6475 17.0485C57.3655 16.6343 57.6117 15.7165 57.1975 14.9985C56.7833 14.2805 55.8655 14.0343 55.1475 14.4485L54.925 14.577C54.5046 14.2181 54.0215 13.9399 53.5 13.7565V13.5C53.5 12.6716 52.8284 12 52 12C51.1716 12 50.5 12.6716 50.5 13.5V13.7565C49.9787 13.9408 49.4959 14.2198 49.076 14.5795L48.8525 14.45C48.1345 14.0358 47.2167 14.282 46.8025 15C46.3883 15.718 46.6345 16.6358 47.3525 17.05L47.5745 17.178C47.4746 17.7218 47.4746 18.2792 47.5745 18.823L47.3525 18.951C46.6365 19.3663 46.3911 20.2823 46.8035 21ZM52 16C53.1046 16 54 16.8954 54 18C54 19.1046 53.1046 20 52 20C50.8955 20 50 19.1046 50 18C50 16.8954 50.8955 16 52 16Z" fill="white"/>
</g>
<path d="M67.32 15.85V21.5H65.95V15.85H64.12V14.61H69.14V15.85H67.32ZM69.8637 14.61H74.6137V15.84H71.2337V17.42H74.1237V18.65H71.2337V20.28H74.6137V21.5H69.8637V14.61ZM78.0152 19.12L76.6452 21.5H75.0952L77.2852 17.97L75.2252 14.61H76.7852L78.0152 16.82L79.2452 14.61H80.7852L78.7452 17.97L80.9252 21.5H79.3752L78.0152 19.12ZM82.4424 21.57C82.2158 21.57 82.0258 21.49 81.8724 21.33C81.7258 21.17 81.6524 20.9767 81.6524 20.75C81.6524 20.5367 81.7258 20.3567 81.8724 20.21C82.0258 20.0567 82.2124 19.98 82.4324 19.98C82.6591 19.98 82.8458 20.0567 82.9924 20.21C83.1458 20.3567 83.2224 20.5367 83.2224 20.75C83.2224 20.97 83.1524 21.1633 83.0124 21.33C82.8724 21.49 82.6824 21.57 82.4424 21.57ZM88.3523 17.67H89.7523C90.0657 17.67 90.3023 17.5833 90.4623 17.41C90.6223 17.2367 90.7023 17.02 90.7023 16.76C90.7023 16.4933 90.619 16.2733 90.4523 16.1C90.2923 15.9267 90.059 15.84 89.7523 15.84H88.3523V17.67ZM90.0623 14.61C90.4023 14.61 90.6957 14.6767 90.9423 14.81C91.189 14.9367 91.3923 15.1033 91.5523 15.31C91.719 15.5167 91.839 15.75 91.9123 16.01C91.9923 16.2633 92.0323 16.5133 92.0323 16.76C92.0323 17.0133 91.9857 17.2667 91.8923 17.52C91.8057 17.7733 91.6757 18.0033 91.5023 18.21C91.3357 18.4167 91.1257 18.5867 90.8723 18.72C90.6257 18.8467 90.3423 18.91 90.0223 18.91H88.3523V21.5H86.9823V14.61H90.0623ZM96.5441 20.08H94.1441L93.6941 21.5H92.2341L94.6541 14.61H96.0541L98.4541 21.5H96.9641L96.5441 20.08ZM94.5141 18.93H96.1741L95.9041 18.05L95.3641 16.23H95.3241L94.7941 18.02L94.5141 18.93ZM101.161 14.55C101.474 14.55 101.774 14.5833 102.061 14.65C102.348 14.7167 102.601 14.8267 102.821 14.98C103.041 15.1267 103.214 15.32 103.341 15.56C103.474 15.8 103.541 16.0933 103.541 16.44C103.541 16.7733 103.454 17.07 103.281 17.33C103.114 17.59 102.888 17.7867 102.601 17.92C102.934 18.0467 103.184 18.2467 103.351 18.52C103.524 18.7933 103.611 19.0933 103.611 19.42C103.611 19.8 103.538 20.1267 103.391 20.4C103.251 20.6667 103.061 20.89 102.821 21.07C102.588 21.2433 102.314 21.37 102.001 21.45C101.694 21.53 101.371 21.57 101.031 21.57C100.798 21.57 100.568 21.5533 100.341 21.52C100.114 21.4933 99.8943 21.45 99.681 21.39C99.4743 21.33 99.281 21.2567 99.101 21.17C98.921 21.0833 98.7643 20.9833 98.631 20.87L99.341 19.86C99.441 19.94 99.5577 20.0133 99.691 20.08C99.8243 20.14 99.9643 20.19 100.111 20.23C100.258 20.27 100.401 20.3033 100.541 20.33C100.688 20.35 100.818 20.36 100.931 20.36C101.358 20.36 101.681 20.2733 101.901 20.1C102.128 19.92 102.241 19.6833 102.241 19.39C102.241 19.09 102.138 18.8667 101.931 18.72C101.724 18.5667 101.451 18.49 101.111 18.49H100.191V17.41H101.071C101.218 17.41 101.354 17.39 101.481 17.35C101.614 17.31 101.731 17.2533 101.831 17.18C101.931 17.1067 102.011 17.0133 102.071 16.9C102.131 16.7867 102.161 16.66 102.161 16.52C102.161 16.3733 102.128 16.25 102.061 16.15C101.994 16.05 101.908 15.97 101.801 15.91C101.694 15.8433 101.571 15.7967 101.431 15.77C101.298 15.7433 101.158 15.73 101.011 15.73C100.784 15.73 100.534 15.7733 100.261 15.86C99.9877 15.94 99.7543 16.0633 99.561 16.23L98.891 15.25C99.1777 15.0233 99.5143 14.85 99.901 14.73C100.288 14.61 100.708 14.55 101.161 14.55ZM104.649 20.29C104.802 20.1767 104.932 20.0433 105.039 19.89C105.146 19.73 105.232 19.5367 105.299 19.31C105.372 19.0833 105.429 18.82 105.469 18.52C105.509 18.2133 105.539 17.8533 105.559 17.44L105.689 14.61H110.349C110.349 15.5633 110.349 16.5133 110.349 17.46C110.356 18.4 110.359 19.3467 110.359 20.3H110.959V23.04H109.709V21.5H105.389V23.04H104.139V20.29H104.649ZM106.919 15.82L106.839 17.47C106.826 17.7633 106.809 18.0433 106.789 18.31C106.769 18.57 106.739 18.82 106.699 19.06C106.659 19.2933 106.602 19.5167 106.529 19.73C106.456 19.9367 106.356 20.1267 106.229 20.3H108.999V15.82H106.919ZM111.924 14.61H116.674V15.84H113.294V17.42H116.184V18.65H113.294V20.28H116.674V21.5H111.924V14.61ZM119.736 15.84V17.67C119.736 18.2433 119.702 18.7633 119.636 19.23C119.569 19.6967 119.449 20.1 119.276 20.44C119.102 20.78 118.859 21.0533 118.546 21.26C118.239 21.4667 117.842 21.6033 117.356 21.67L117.056 20.55C117.342 20.4567 117.572 20.3367 117.746 20.19C117.919 20.0433 118.052 19.8567 118.146 19.63C118.246 19.4033 118.309 19.1333 118.336 18.82C118.369 18.5067 118.386 18.1367 118.386 17.71V14.61H122.926V21.5H121.536V15.84H119.736Z" fill="white"/>
<rect x="1" y="1" width="167" height="33" rx="9" stroke="url(#paint2_linear_7689_382)" stroke-width="2"/>
</g>
<defs>
<linearGradient id="paint0_linear_7689_382" x1="169" y1="35" x2="1.12391e-06" y2="-5.4269e-06" gradientUnits="userSpaceOnUse">
<stop stop-color="#532424"/>
<stop offset="0.501962" stop-color="#D55050"/>
<stop offset="1" stop-color="#532424"/>
</linearGradient>
<linearGradient id="paint1_linear_7689_382" x1="94.2335" y1="19.0034" x2="93.5358" y2="-9.08056" gradientUnits="userSpaceOnUse">
<stop stop-color="white"/>
<stop offset="1" stop-color="#999999" stop-opacity="0"/>
</linearGradient>
<linearGradient id="paint2_linear_7689_382" x1="84" y1="35" x2="84" y2="-4.8126e-06" gradientUnits="userSpaceOnUse">
<stop stop-color="#FC6666"/>
<stop offset="1" stop-color="#FF5353" stop-opacity="0"/>
</linearGradient>
<clipPath id="clip0_7689_382">
<rect width="169" height="35" fill="white"/>
</clipPath>
<clipPath id="clip1_7689_382">
<rect width="12" height="12" fill="white" transform="translate(46 12)"/>
</clipPath>
</defs>
</svg>
