<svg version="1.2" xmlns="http://www.w3.org/2000/svg" viewBox="0 0 169 35" width="169" height="35"><defs><clipPath clipPathUnits="userSpaceOnUse" id="cp1"><path d="m0 0h169v35h-169z"/></clipPath><clipPath clipPathUnits="userSpaceOnUse" id="cp2"><path d="m169 0h-169v35h169z"/></clipPath><linearGradient id="P" gradientUnits="userSpaceOnUse"/><linearGradient id="g1" x2="1" href="#P" gradientTransform="matrix(-169,-35,13.446,-64.925,169,35)"><stop stop-color="#532424"/><stop offset=".49" stop-color="#730b0b"/><stop offset=".5" stop-color="#720b0b"/><stop offset="1" stop-color="#532424"/></linearGradient><clipPath clipPathUnits="userSpaceOnUse" id="cp3"><path d="m159 0h-149c-5.52 0-10 4.48-10 10v15c0 5.52 4.48 10 10 10h149c5.52 0 10-4.48 10-10v-15c0-5.52-4.48-10-10-10z"/></clipPath><linearGradient id="g2" x2="1" href="#P" gradientTransform="matrix(-0.698,-28.084,38.869,-0.966,102.233,17.003)"><stop stop-color="#fff" stop-opacity="1"/><stop offset="1" stop-color="#999" stop-opacity="0"/></linearGradient><clipPath clipPathUnits="userSpaceOnUse" id="cp4"><path d="m58 12h-12v12h12z"/></clipPath><linearGradient id="g3" x2="1" href="#P" gradientTransform="matrix(0,-35,177.121,0,84,35)"><stop stop-color="#ff5e5e" stop-opacity="1"/><stop offset="1" stop-color="#ff5353" stop-opacity="0"/></linearGradient></defs><style>.a{fill:url(#g1)}.b{opacity:.2;fill:#fff}.c{opacity:.3;mix-blend-mode:overlay;fill:url(#g2)}.d{fill:#fff}.e{opacity:.35;fill:#f00}.f{fill:none;stroke:url(#g3);stroke-width:2}.g{opacity:.5;fill:none}</style><g clip-path="url(#cp1)"><g clip-path="url(#cp2)"><path class="a" d="m159 0h-149c-5.5 0-10 4.5-10 10v15c0 5.5 4.5 10 10 10h149c5.5 0 10-4.5 10-10v-15c0-5.5-4.5-10-10-10z"/><g clip-path="url(#cp3)"><path class="b" d="m64.5 24.3c22.8 4.8 35.4 22.5 38.8 30.8-19.4-20.1-46.9-21.6-58.3-19.9 16.7-45.8 58.6-43.3 77.4-36.3-15.9 10-18.4 38.7-17.6 51.7-8-18.8-26.7-26.3-35.1-27.7 11.5-3.8 22.5 0.4 26.6 2.9 1.7-11.2 7.3-20.4 9.8-23.6-22.5-0.9-37.1 14.4-41.6 22.1z"/><path class="c" d="m-15.4-79.7c103.9-80.8 123.2-201.9 119.9-252.3-48 149.7-183.5 226.2-245.2 245.8 198.4 190.4 404 73.5 482-8.8-105.5-11.3-189.3-150-218.1-218 6.6 115.4-69.6 199.9-108.5 227.8 67.7-9.5 113-57.9 127.2-81 36.9 52.5 87.6 85.1 108.4 94.8-111.5 60.9-223.6 19.9-265.7-8.3z"/></g><g clip-path="url(#cp4)"><path class="d" d="m81.5-100h-0.5c-0.2-0.6-0.5-1.1-0.9-1.4-0.5-0.4-1-0.6-1.6-0.6h-1c-0.6 0-1.1 0.2-1.6 0.6-0.4 0.3-0.7 0.8-0.9 1.4h-0.5c-0.7 0-1.3 0.3-1.8 0.7-0.4 0.5-0.7 1.1-0.7 1.8v1.5h12v-1.5c0-0.7-0.3-1.3-0.7-1.8-0.5-0.4-1.1-0.7-1.8-0.7zm-5.4 0q0.2-0.4 0.5-0.7 0.4-0.3 0.9-0.3h1q0.5 0 0.9 0.3 0.3 0.3 0.5 0.7z"/><path class="d" d="m50.5-100.5q0 0.2-0.1 0.4-0.2 0.1-0.4 0.1-0.2 0-0.4-0.1-0.1-0.2-0.1-0.4v-0.5h-5.5v2.5c0 0.7 0.3 1.3 0.7 1.8 0.5 0.4 1.1 0.7 1.8 0.7h7c0.7 0 1.3-0.3 1.8-0.7 0.4-0.5 0.7-1.1 0.7-1.8v-2.5h-5.5z"/></g><path class="e" d="m302.3 96.3h-1.2l-0.2 0.7h-0.7l1.2-3.4h0.7l1.2 3.4h-0.8zm-1-0.6h0.9l-0.2-0.4-0.2-0.9h-0.1l-0.2 0.9zm4.1-2.2q0.2 0 0.4 0.1 0.2 0.1 0.3 0.3 0.1 0.1 0.2 0.3 0.1 0.2 0.1 0.4 0 0.1-0.1 0.3 0 0.1-0.1 0.2-0.1 0.2-0.2 0.3-0.1 0.1-0.2 0.1l0.6 1.5h-0.7q0-0.1-0.1-0.2 0-0.1-0.1-0.2 0-0.2-0.1-0.3-0.1-0.1-0.1-0.3-0.1-0.1-0.1-0.2 0-0.1-0.1-0.1h-0.6v1.3h-0.7v-3.5zm-0.8 1.5h0.7q0.2 0 0.3-0.1 0.2-0.1 0.2-0.3 0-0.2-0.2-0.3-0.1-0.2-0.3-0.2h-0.7zm3.3-1.5v3.4h-0.7v-3.4zm0.8 2.9l1.6-2.3h-1.5v-0.6h2.3v0.6l-1.6 2.2h1.6v0.6h-2.4zm5.7-0.5q0 0.3-0.1 0.5-0.1 0.2-0.3 0.4-0.1 0.1-0.4 0.2-0.2 0.1-0.5 0.1-0.3 0-0.5-0.1-0.2-0.1-0.4-0.2-0.2-0.2-0.3-0.4-0.1-0.2-0.1-0.5v-1.2q0-0.3 0.1-0.5 0.1-0.2 0.3-0.4 0.2-0.1 0.4-0.2 0.3-0.1 0.5 0 0.3 0 0.5 0 0.2 0.1 0.4 0.2 0.2 0.2 0.3 0.4 0.1 0.2 0.1 0.5zm-0.7-1.1q0-0.2 0-0.3-0.1-0.1-0.2-0.2 0-0.1-0.2-0.1-0.1-0.1-0.2-0.1-0.1 0-0.2 0.1-0.1 0-0.2 0.1-0.1 0.1-0.2 0.2 0 0.1 0 0.3v1q0 0.1 0 0.3 0.1 0.1 0.2 0.2 0.1 0 0.2 0.1 0.1 0 0.2 0 0.1 0 0.2 0 0.2-0.1 0.2-0.1 0.1-0.1 0.2-0.2 0-0.2 0-0.3zm2.2 0v2.2h-0.6v-3.5h0.6l0.8 1.2 0.6 1v-2.2h0.7v3.5h-0.6l-0.9-1.3-0.5-0.9zm4.8 1.5h-1.2l-0.2 0.7h-0.8l1.3-3.5h0.7l1.2 3.5h-0.8zm-1-0.6h0.8l-0.1-0.4-0.3-0.9-0.3 0.9zm6.6 0.3q0 0.2-0.1 0.4-0.1 0.2-0.2 0.3-0.2 0.1-0.5 0.2-0.2 0.1-0.5 0.1-0.4 0-0.7-0.1-0.3-0.1-0.6-0.4l0.4-0.5q0.2 0.2 0.4 0.3 0.3 0.1 0.5 0.1 0.2 0 0.3-0.1 0.1 0 0.2-0.1 0 0 0.1-0.1 0-0.1 0-0.1 0-0.2-0.1-0.2 0-0.1-0.1-0.2-0.1 0-0.3-0.1-0.1 0-0.3 0-0.2-0.1-0.4-0.2-0.2 0-0.3-0.2-0.1-0.1-0.2-0.2-0.1-0.2-0.1-0.4 0-0.2 0.1-0.4 0.1-0.2 0.2-0.4 0.2-0.1 0.4-0.2 0.2-0.1 0.5-0.1 0.3 0 0.6 0.1 0.3 0.1 0.6 0.3l-0.3 0.5q-0.2-0.1-0.4-0.2-0.3 0-0.5 0-0.1 0-0.2 0-0.1 0-0.1 0.1-0.1 0-0.2 0.1 0 0.1 0 0.2 0 0.1 0 0.1 0.1 0.1 0.2 0.2 0.1 0 0.2 0.1 0.2 0 0.4 0 0.5 0.2 0.8 0.4 0.2 0.2 0.2 0.7zm2.7-1.3l-0.2 1-0.4 1.2h-0.7l-0.9-3.4h0.7l0.3 1.4 0.3 1 0.3-1 0.3-1.4h0.6l0.4 1.4 0.3 1 0.2-1 0.3-1.4h0.7l-0.8 3.4h-0.8l-0.3-1.3zm4.6 1.5h-1.2l-0.2 0.7h-0.7l1.2-3.4h0.7l1.2 3.4h-0.8zm-1-0.5h0.8l-0.1-0.5-0.3-0.9-0.2 0.9zm5 0.8q-0.1 0.2-0.3 0.3-0.1 0.1-0.3 0.1-0.1 0.1-0.3 0.1-0.1 0-0.3 0-0.2 0-0.4 0-0.3-0.1-0.5-0.2-0.2-0.2-0.3-0.4-0.1-0.2-0.1-0.5v-1.2q0-0.3 0.1-0.5 0.1-0.2 0.3-0.4 0.2-0.1 0.5-0.2 0.2-0.1 0.4-0.1 0.3 0 0.6 0.1 0.3 0.1 0.5 0.3l-0.3 0.5q-0.2-0.1-0.4-0.2-0.2-0.1-0.3 0-0.2 0-0.3 0-0.1 0-0.2 0.1-0.1 0.1-0.1 0.2-0.1 0.1-0.1 0.3v1q0 0.1 0.1 0.3 0 0.1 0.1 0.2 0.1 0 0.2 0.1 0.1 0 0.2 0 0.1 0 0.3 0 0.1-0.1 0.2-0.1v-0.6h-0.5v-0.6h1.2z"/><path class="f" d="m159 1h-149c-5 0-9 4-9 9v15c0 5 4 9 9 9h149c5 0 9-4 9-9v-15c0-5-4-9-9-9z"/><path class="d" d="m436 3h3.6c1.7 0 2.8-0.9 3.1-2.2 0.1-1-0.5-1.8-1.5-1.8v-0.1c0.9-0.1 1.6-0.8 1.8-1.6 0.1-1.2-0.7-1.9-2.4-1.9h-3.3zm2.3-1.7l0.3-1.6h1c0.6 0 1 0.3 0.9 0.8-0.1 0.5-0.5 0.8-1.2 0.8zm0.5-2.9l0.2-1.4h0.9c0.5 0 0.9 0.2 0.8 0.7-0.1 0.4-0.5 0.7-1.1 0.7zm3.9 4.6h0.6c1.9 0 2.8-1 3.4-3.7l0.5-2.4h1.6l-1 6.1h2l1.3-7.7h-5.6l-0.6 3.2c-0.4 2.1-0.9 2.7-1.7 2.8l-0.2 0.1zm10.3 0l0.6-1.5h2.6l0.2 1.5h2.2l-1.3-7.7h-2.8l-3.8 7.7zm1.4-3l1.2-2.6h0.1l0.3 2.6zm4.1 4.8h2l0.3-1.8h4l-0.3 1.8h2l0.6-3.4h-0.8l1-6.1h-5.4l-0.8 3.3c-0.4 1.8-0.9 2.4-1.5 2.8h-0.6zm3.5-3.5c0.4-0.5 0.8-1.4 1.2-2.8l0.4-1.5h1.5l-0.7 4.3zm6.1 1.6h5.4l0.3-1.6h-3.4l0.2-1.3h3.2l0.2-1.7h-3.1l0.2-1.3h3.4l0.3-1.7h-5.5zm5.8 0h0.5c1.9 0 2.8-1 3.4-3.6l0.5-2.4h1.6l-1 6h2l1.3-7.6h-5.5l-0.7 3.2c-0.4 2-0.9 2.7-1.7 2.8h-0.2zm8.3 0h5.5l0.3-1.7h-3.5l0.3-1.3h3.1l0.3-1.6h-3.2l0.2-1.4h3.5l0.3-1.6h-5.5zm15.2-1.6h-1.3l1-6.1h-2l-1 6.1h-2.7l1-6.1h-2l-1.2 7.7h5.9l-0.3 1.8h1.9z"/></g></g><path class="d" d="m35 9.4c-0.2 0-0.3-0.1-0.4-0.2-0.2-0.1-0.4-0.2-0.9-0.2-0.8 0-1.4 1-1.8 2.1-1.2 0.2-2 0.5-2 0.9 0 0.3 0.6 0.6 1.7 0.8q0 0.2 0 0.3 0 0.6 0.2 1.1h-1.6c-0.2 0-0.3 0.2-0.3 0.4q0 0 0 0.1l1 2.3c-1.1 0.7-1.9 1.9-1.9 3.3 0 0.4 0.4 0.7 0.8 0.7h10.4c0.4 0 0.8-0.3 0.8-0.7 0-1.4-0.8-2.6-1.9-3.3l1-2.3q0-0.1 0-0.1c0-0.2-0.1-0.4-0.3-0.4h-1.6q0.2-0.5 0.2-1.1 0-0.1 0-0.3c1.1-0.2 1.7-0.5 1.7-0.8 0-0.4-0.8-0.7-2-0.9-0.4-1.1-1-2.1-1.8-2.1-0.5 0-0.7 0.1-0.9 0.2-0.1 0.1-0.2 0.2-0.4 0.2zm1.5 4.8h-0.3c-0.5 0-0.9-0.2-1-0.6-0.1-0.1-0.3-0.1-0.4 0-0.1 0.4-0.5 0.6-1 0.6h-0.3c-0.6 0-1.1-0.4-1.1-0.9v-0.3c0.8 0.1 1.7 0.1 2.6 0.1 0.9 0 1.8 0 2.6-0.1v0.3c0 0.5-0.5 0.9-1.1 0.9zm-2.4 2.3l0.5 0.8-0.9 3-1.3-4.5zm3.5-0.8l-1.3 4.5-0.9-3 0.4-0.8z"/><path class="d" d="m58.5 19h3c1.5 0 2.3-0.8 2.3-1.9 0-0.9-0.7-1.5-1.5-1.6 0.8-0.2 1.3-0.7 1.3-1.5 0-1-0.8-1.7-2.3-1.7h-2.8zm1.6-1.3v-1.6h1.1c0.6 0 0.9 0.3 0.9 0.9 0 0.4-0.3 0.7-1 0.7zm0-2.6v-1.5h0.9c0.6 0 0.9 0.3 0.9 0.7 0 0.5-0.4 0.8-0.9 0.8zm4.1 3.9h0.4c1.7 0 2.2-0.9 2.4-3.2l0.1-2.2h1.6v5.4h1.6v-6.7h-4.7l-0.1 2.9c-0.1 1.8-0.4 2.4-1.1 2.5h-0.2zm8.7 0l0.5-1.4h2.3l0.4 1.4h1.8l-2.3-6.6h-2.1l-2.3 6.6zm0.8-2.6l0.8-2.4 0.8 2.4zm4.4 4.3h1.6v-1.7h3.8v1.6h1.5v-2.8h-0.7v-5.4h-4.6l-0.2 2.8c-0.1 1.7-0.5 2.3-0.9 2.6h-0.5zm2.3-2.9c0.3-0.5 0.6-1.3 0.7-2.6l0.1-1.5h1.6v4.1zm4.9 1.3h4.7v-1.3h-3.1v-1.4h2.9v-1.3h-2.9v-1.4h3.1v-1.3h-4.7zm5.7 0h0.4c1.7 0 2.3-0.9 2.4-3.2l0.1-2.2h1.6v5.4h1.6v-6.7h-4.7l-0.1 2.9c-0.1 1.8-0.4 2.4-1.1 2.5h-0.2zm7.3 0h4.7v-1.3h-3.1v-1.4h2.9v-1.3h-2.9v-1.4h3.1v-1.3h-4.7zm11.7-1.2h-1v-5.5h-1.6v5.5h-2.5v-5.5h-1.6v6.7h5.1v1.6h1.5z"/><path class="g" d="m12.4 32.1c0.6 0 1.2-0.2 1.5-0.8h0.1l-0.1 0.7h1.6l0.6-3.4c0.1-0.9-0.6-1.6-2-1.6-1.5 0-2.3 0.8-2.6 1.7h1.7c0.1-0.3 0.3-0.5 0.7-0.5 0.3 0 0.4 0.2 0.4 0.4v0.1c0 0.2-0.4 0.3-1.2 0.4-1 0.1-1.9 0.5-2.1 1.5-0.1 1 0.5 1.5 1.4 1.5zm0.8-1.1c-0.3 0-0.5-0.2-0.5-0.5 0.1-0.2 0.3-0.4 0.7-0.5 0.3 0 0.5-0.1 0.7-0.1v0.4c-0.1 0.4-0.5 0.7-0.9 0.7zm2.8 1h1.8l0.4-2.6c0.1-0.5 0.6-0.9 1.1-0.9 0.2 0 0.5 0 0.6 0.1l0.3-1.5c-0.2 0-0.3-0.1-0.5-0.1-0.5 0-0.9 0.3-1.2 1h-0.1l0.2-0.9h-1.7zm4 0h1.7l0.8-4.9h-1.7zm1.8-5.4c0.4 0 0.9-0.4 0.9-0.8 0.1-0.5-0.2-0.8-0.7-0.8-0.5 0-0.9 0.3-1 0.8-0.1 0.4 0.3 0.8 0.8 0.8zm1.2 5.4h4.4l0.2-1.4h-2.1 0.1l2.3-2.5 0.2-1h-4.2l-0.2 1.3h2.1l-2.6 2.6zm7.3 0.1c1.6 0 2.7-1 2.9-2.5 0.3-1.5-0.5-2.6-2.1-2.6-1.6 0-2.7 1.1-2.9 2.6-0.3 1.5 0.5 2.5 2.1 2.5zm0.2-1.3c-0.5 0-0.7-0.5-0.5-1.2 0.1-0.8 0.4-1.3 0.9-1.3 0.5 0 0.7 0.5 0.5 1.3-0.1 0.7-0.4 1.2-0.9 1.2zm5.7-1.6c0-0.4 0.4-0.7 0.8-0.7 0.5 0 0.7 0.3 0.6 0.7l-0.5 2.8h1.8l0.5-3.1c0.2-1.1-0.4-1.9-1.4-1.9-0.7 0-1.4 0.4-1.7 1l0.1-0.9h-1.6l-0.9 4.9h1.8zm5.1 2.8c0.7 0 1.2-0.2 1.6-0.7l-0.1 0.7h1.6l0.6-3.4c0.2-0.9-0.6-1.6-2-1.6-1.5 0-2.3 0.8-2.5 1.7h1.6c0.1-0.3 0.3-0.5 0.7-0.5 0.3 0 0.5 0.2 0.4 0.4 0 0.3-0.3 0.4-1.2 0.5-1 0-1.9 0.4-2 1.5-0.2 1 0.4 1.4 1.3 1.4zm0.8-1.1c-0.3 0-0.5-0.1-0.5-0.4 0.1-0.2 0.3-0.4 0.7-0.5 0.3 0 0.6-0.1 0.7-0.2v0.4c-0.1 0.5-0.5 0.7-0.9 0.7zm4.6 2.9h1.7l0.5-2.6c0.1 0.5 0.5 0.8 1.2 0.8 1.1 0 2.1-0.8 2.4-2.5 0.3-1.8-0.5-2.5-1.5-2.5-0.7 0-1.3 0.4-1.5 0.9h-0.1l0.2-0.8h-1.8zm2.5-4.3c0.1-0.8 0.4-1.2 0.9-1.2 0.5 0 0.7 0.4 0.6 1.2-0.1 0.7-0.5 1.1-1 1.1-0.4 0-0.7-0.4-0.5-1.1zm4.2 2.5c0.6 0 1.1-0.2 1.5-0.8l-0.1 0.7h1.7l0.5-3.3c0.2-0.9-0.6-1.7-2-1.7-1.4 0-2.3 0.8-2.5 1.7h1.6c0.1-0.3 0.4-0.4 0.7-0.4 0.3 0 0.5 0.1 0.5 0.4-0.1 0.3-0.4 0.3-1.2 0.4-1.1 0.1-1.9 0.5-2.1 1.6-0.2 0.9 0.4 1.4 1.4 1.4zm0.7-1.1c-0.3 0-0.5-0.2-0.4-0.4 0-0.3 0.2-0.5 0.7-0.5 0.2-0.1 0.5-0.1 0.7-0.2l-0.1 0.4c-0.1 0.4-0.5 0.7-0.9 0.7zm3.9 1h1.8l0.4-2.5c0.1-0.6 0.5-1 1-1 0.2 0 0.5 0.1 0.7 0.1l0.2-1.5c-0.1 0-0.2-0.1-0.4-0.1-0.5 0-1 0.4-1.3 1l0.1-0.9h-1.7zm4 0h1.8l0.2-1.4 0.3-0.3 0.7 1.7h2.1l-1.3-2.7 2-2.2h-1.9l-1.5 1.7h-0.1l0.6-3.3h-1.8zm7.3 0.1c1.4 0 2.4-0.7 2.7-1.7h-1.6c-0.1 0.3-0.5 0.4-0.8 0.4-0.5 0-0.8-0.3-0.7-0.8v-0.1h3.2l0.1-0.4c0.2-1.5-0.6-2.5-2.1-2.5-1.5 0-2.6 1-2.9 2.5-0.2 1.6 0.6 2.6 2.1 2.6zm-0.2-3.2c0.1-0.4 0.5-0.7 0.9-0.7 0.4 0 0.7 0.3 0.6 0.7zm2.9 3.1h1.8l0.4-2.6c0.1-0.6 0.6-0.9 1.1-0.9 0.2 0 0.5 0 0.6 0.1l0.3-1.5c-0.2-0.1-0.3-0.1-0.4-0.1-0.6 0-1 0.3-1.3 1h-0.1l0.2-0.9h-1.7z"/></svg>