<svg version="1.2" xmlns="http://www.w3.org/2000/svg" viewBox="0 0 169 35" width="169" height="35"><defs><clipPath clipPathUnits="userSpaceOnUse" id="cp1"><path d="m0 0h169v35h-169z"/></clipPath><clipPath clipPathUnits="userSpaceOnUse" id="cp2"><path d="m169 0h-169v35h169z"/></clipPath><linearGradient id="P" gradientUnits="userSpaceOnUse"/><linearGradient id="g1" x2="1" href="#P" gradientTransform="matrix(-169,-35,13.447,-64.928,169,35)"><stop stop-color="#45572e"/><stop offset=".5" stop-color="#6b8e00"/><stop offset=".5" stop-color="#6b8e00"/><stop offset=".52" stop-color="#6b8e00"/><stop offset="1" stop-color="#45572e"/></linearGradient><clipPath clipPathUnits="userSpaceOnUse" id="cp3"><path d="m159 0h-149c-5.52 0-10 4.48-10 10v15c0 5.52 4.48 10 10 10h149c5.52 0 10-4.48 10-10v-15c0-5.52-4.48-10-10-10z"/></clipPath><linearGradient id="g2" x2="1" href="#P" gradientTransform="matrix(-0.698,-28.084,38.869,-0.966,94.233,19.003)"><stop stop-color="#fff" stop-opacity="1"/><stop offset="1" stop-color="#999" stop-opacity="0"/></linearGradient><clipPath clipPathUnits="userSpaceOnUse" id="cp4"><path d="m44 12h-12v12h12z"/></clipPath><linearGradient id="g3" x2="1" href="#P" gradientTransform="matrix(0,-35,177.121,0,84,35)"><stop stop-color="#c2ff06" stop-opacity="1"/><stop offset="1" stop-color="#fafb5f" stop-opacity="0"/></linearGradient></defs><style>.a{fill:url(#g1)}.b{opacity:.2;fill:#fff}.c{opacity:.3;mix-blend-mode:overlay;fill:url(#g2)}.d{fill:#fff}.e{fill:none;stroke:url(#g3);stroke-width:2}</style><g clip-path="url(#cp1)"><g clip-path="url(#cp2)"><path class="a" d="m159 0h-149c-5.5 0-10 4.5-10 10v15c0 5.5 4.5 10 10 10h149c5.5 0 10-4.5 10-10v-15c0-5.5-4.5-10-10-10z"/><g clip-path="url(#cp3)"><path class="b" d="m65.5 24.3c22.8 4.8 35.4 22.5 38.8 30.8-19.4-20.1-46.9-21.6-58.3-19.9 16.7-45.8 58.6-43.3 77.4-36.3-15.9 10-18.4 38.7-17.6 51.7-8-18.8-26.7-26.3-35.1-27.7 11.5-3.8 22.5 0.4 26.6 2.9 1.7-11.2 7.3-20.4 9.8-23.6-22.5-0.9-37.1 14.4-41.6 22.1z"/><path class="c" d="m-23.4-77.7c103.9-80.8 123.2-201.9 119.9-252.3-48 149.7-183.5 226.2-245.2 245.8 198.4 190.4 404 73.5 482-8.8-105.5-11.3-189.3-150-218.1-218 6.6 115.4-69.6 199.9-108.5 227.8 67.7-9.5 113-57.9 127.2-81 36.9 52.5 87.6 85.1 108.4 94.8-111.5 60.9-223.6 19.9-265.7-8.3z"/></g><g clip-path="url(#cp4)"><path class="d" d="m41.3 13.1l-3.1-1.1q-0.2 0-0.4 0l-3.1 1.1c-0.5 0.1-0.9 0.5-1.2 0.9-0.3 0.4-0.5 0.9-0.5 1.4v2.6c0 3.8 4.6 5.9 4.8 6q0.1 0 0.2 0 0.1 0 0.2 0c0.2-0.1 4.8-2.2 4.8-6v-2.6c0-0.5-0.2-1-0.5-1.4-0.3-0.4-0.7-0.8-1.2-0.9zm-0.9 3.8l-2.2 2.1q-0.1 0.1-0.3 0.2-0.2 0.1-0.3 0.1h-0.1q-0.2 0-0.3-0.1-0.2-0.1-0.3-0.2l-1.2-1.2q-0.1-0.1-0.1-0.2 0-0.1 0-0.2 0-0.1 0-0.2 0-0.1 0.1-0.2 0.1 0 0.2-0.1 0.1 0 0.2 0 0.1 0 0.2 0.1 0.1 0 0.1 0.1l1.2 1.2 2.1-2.2q0.1-0.1 0.3-0.1 0.2 0 0.4 0.2 0.1 0.1 0.1 0.3 0 0.2-0.1 0.4z"/></g><path class="d" d="m52.6 14.6q0.5-0.1 0.9 0.1 0.5 0.1 0.8 0.3 0.3 0.2 0.5 0.6 0.2 0.3 0.2 0.8 0 0.5-0.3 0.9-0.2 0.4-0.6 0.6 0.5 0.2 0.7 0.6 0.3 0.4 0.3 0.9 0 0.6-0.3 1-0.2 0.4-0.5 0.7-0.4 0.2-0.8 0.3-0.5 0.2-1 0.2-0.4 0-0.7-0.1-0.3 0-0.7-0.1-0.3-0.1-0.5-0.2-0.3-0.2-0.5-0.3l0.7-1q0.2 0.1 0.3 0.2 0.2 0.1 0.5 0.1 0.2 0.1 0.4 0.1 0.2 0.1 0.4 0.1 0.6 0 1-0.3 0.3-0.3 0.3-0.7 0-0.5-0.3-0.7-0.3-0.2-0.8-0.2h-1v-1.1h0.9q0.2 0 0.4 0 0.2-0.1 0.4-0.2 0.1-0.1 0.2-0.3 0.1-0.2 0.1-0.4 0-0.2-0.1-0.4-0.1-0.1-0.2-0.2-0.2-0.1-0.4-0.1-0.2-0.1-0.4-0.1-0.4 0-0.8 0.2-0.4 0.1-0.7 0.3l-0.7-0.9q0.5-0.4 1.1-0.6 0.5-0.1 1.2-0.1zm7.8 5.5h-2.4l-0.5 1.4h-1.4l2.4-6.9h1.4l2.4 6.9h-1.5zm-2-1.1h1.6l-0.2-0.9-0.6-1.8-0.6 1.7zm10.4-1.1l-0.6 1.3-0.8 1.5h-1l-0.8-1.5-0.6-1.3h-0.1v3.7h-1.3v-6.9h1.2l1.3 2.5 0.8 1.7h0.1l0.8-1.8 1.2-2.4h1.2v6.9h-1.3v-3.7zm3.1-3.2h4.7v1.3h-3.4v1.5h2.9v1.3h-2.9v1.6h3.4v1.2h-4.7zm10.3 1.7q-0.3-0.3-0.7-0.4-0.4-0.1-0.7-0.1-0.3 0-0.5 0.1-0.2 0-0.4 0.2-0.2 0.1-0.3 0.4-0.1 0.2-0.1 0.6v2q0 0.3 0.1 0.5 0.1 0.3 0.3 0.4 0.2 0.2 0.4 0.2 0.2 0.1 0.5 0.1 0.3 0 0.7-0.1 0.3-0.1 0.7-0.4l0.6 1.1q-0.3 0.3-0.9 0.5-0.5 0.2-1.2 0.2-0.4 0-0.9-0.2-0.5-0.1-0.9-0.4-0.3-0.3-0.6-0.7-0.2-0.4-0.2-0.9v-2.6q0-0.6 0.2-1 0.3-0.4 0.6-0.7 0.4-0.3 0.9-0.4 0.4-0.1 0.9-0.1 0.6-0.1 1.2 0.1 0.5 0.2 0.9 0.5zm4.8-0.4v5.6h-1.3v-5.6h-1.9v-1.2h5v1.2zm7.2 1.2l-0.7 1q-0.1 0.2-0.3 0.5-0.1 0.2-0.3 0.6-0.3 0.3-0.5 0.6-0.2 0.4-0.4 0.7-0.2 0.3-0.4 0.6-0.2 0.2-0.3 0.4h-1.2v-6.8h1.3v4.5h0.1l1.4-2.3 1.5-2.2h1.2v6.8h-1.3v-4.4zm5.8-1.2v5.6h-1.4v-5.6h-1.8v-1.2h5v1.2zm3.1-1.2h4.7v1.2h-3.4v1.6h2.9v1.2h-2.9v1.6h3.4v1.2h-4.7zm8.3 1.3v1.8q0 0.9-0.1 1.6-0.1 0.7-0.4 1.2-0.2 0.5-0.7 0.8-0.5 0.3-1.2 0.4l-0.3-1.1q0.4-0.2 0.7-0.4 0.3-0.2 0.4-0.5 0.1-0.4 0.2-0.8 0-0.5 0-1.2v-3.1h4.6v6.9h-1.4v-5.6zm4.9 5.6v-6.9h1.4v2.7h1.6q0.5 0 0.9 0.1 0.4 0.2 0.7 0.5 0.2 0.3 0.4 0.6 0.1 0.4 0.1 0.9 0 0.4-0.1 0.8-0.1 0.3-0.4 0.6-0.2 0.3-0.6 0.5-0.4 0.2-1 0.2zm1.4-1.2h1.4q0.5 0 0.7-0.3 0.3-0.2 0.3-0.6 0-0.4-0.3-0.7-0.2-0.2-0.7-0.2h-1.4zm8.2 1.2v-6.9h4.7v1.3h-3.4v5.6zm9.6-1.4h-2.4l-0.4 1.4h-1.5l2.4-6.9h1.4l2.4 6.9h-1.5zm-2-1.1h1.7l-0.3-0.9-0.5-1.8h-0.1l-0.5 1.8z"/><path class="e" d="m159 1h-149c-5 0-9 4-9 9v15c0 5 4 9 9 9h149c5 0 9-4 9-9v-15c0-5-4-9-9-9z"/></g></g></svg>